<svg width="297" height="297" viewBox="0 0 297 297" fill="none" xmlns="http://www.w3.org/2000/svg">
<g clip-path="url(#clip0_304_61)">
<path d="M295.576 104.887C292.833 100.5 287.052 99.1659 282.665 101.908L188.787 160.582V127.465C188.787 116.243 180.971 106.196 166.673 98.8699L246.795 40.1139C250.967 37.0529 251.869 31.1909 248.81 27.0179C245.747 22.8429 239.884 21.9419 235.713 25.0019L145.414 91.2219C134.561 88.5819 122.418 87.1769 109.852 87.1769C89.989 87.1769 71.167 90.6789 56.858 97.0399C40.129 104.474 30.919 115.278 30.919 127.464V175.186L3.82901 195.052C-0.343993 198.113 -1.24599 203.976 1.81401 208.149C3.65001 210.652 6.49401 211.978 9.37701 211.978C11.3 211.978 13.24 211.387 14.91 210.164L30.918 198.425V202.609C30.918 214.794 40.129 225.598 56.856 233.033C59.987 234.424 63.343 235.67 66.87 236.78L35.321 256.499C30.933 259.242 29.599 265.022 32.341 269.41C34.119 272.254 37.172 273.814 40.296 273.814C41.991 273.814 43.709 273.354 45.252 272.389L93.718 242.098C98.97 242.619 104.368 242.895 109.852 242.895C129.715 242.895 148.536 239.392 162.848 233.033C179.575 225.598 188.786 214.794 188.786 202.609V182.681L292.595 117.8C296.983 115.055 298.317 109.276 295.576 104.887ZM109.852 105.916C146.04 105.916 170.048 118.886 170.048 127.465C170.048 136.043 146.039 149.014 109.852 149.014C73.665 149.014 49.656 136.043 49.656 127.465C49.656 118.885 73.665 105.916 109.852 105.916ZM49.656 202.607V154.211C51.874 155.512 54.275 156.74 56.857 157.887C71.169 164.247 89.989 167.75 109.852 167.75C129.715 167.75 148.536 164.247 162.848 157.887C165.43 156.741 167.83 155.512 170.048 154.211V172.292L89.416 222.688C64.911 219.06 49.656 209.442 49.656 202.607ZM170.048 202.607C170.048 210.059 151.923 220.821 123.442 223.519L170.048 194.39V202.607Z" fill="#707070"/>
<path d="M94.127 139.652C98.433 140.608 104.018 141.135 109.852 141.135C115.687 141.135 121.272 140.608 125.577 139.652C136.327 137.263 138.585 131.706 138.585 127.465C138.585 123.223 136.328 117.665 125.577 115.276C121.272 114.319 115.688 113.793 109.852 113.793C104.017 113.793 98.433 114.319 94.127 115.276C83.376 117.666 81.12 123.223 81.12 127.465C81.12 131.706 83.377 137.263 94.127 139.652Z" fill="#9C9C9C"/>
</g>
<defs>
<clipPath id="clip0_304_61">
<rect width="297" height="297" fill="white"/>
</clipPath>
</defs>
</svg>
