<svg xmlns="http://www.w3.org/2000/svg" xmlns:xlink="http://www.w3.org/1999/xlink" width="500" zoomAndPan="magnify" viewBox="0 0 375 374.999991" height="500" preserveAspectRatio="xMidYMid meet" version="1.0"><defs><g/><clipPath id="b027842f6d"><path d="M 76.523438 75.820312 L 303.023438 75.820312 L 303.023438 302.320312 L 76.523438 302.320312 Z M 76.523438 75.820312 " clip-rule="nonzero"/></clipPath></defs><g clip-path="url(#b027842f6d)"><path fill="#111b1e" d="M 303.28125 189.199219 C 303.28125 191.054688 303.238281 192.910156 303.144531 194.761719 C 303.054688 196.617188 302.917969 198.464844 302.738281 200.3125 C 302.554688 202.160156 302.328125 204 302.054688 205.835938 C 301.785156 207.671875 301.464844 209.5 301.105469 211.316406 C 300.742188 213.136719 300.335938 214.949219 299.886719 216.746094 C 299.433594 218.546875 298.9375 220.335938 298.402344 222.109375 C 297.863281 223.886719 297.28125 225.648438 296.65625 227.394531 C 296.03125 229.140625 295.363281 230.871094 294.652344 232.585938 C 293.941406 234.300781 293.191406 235.996094 292.398438 237.675781 C 291.605469 239.351562 290.769531 241.007812 289.894531 242.644531 C 289.019531 244.28125 288.105469 245.894531 287.152344 247.488281 C 286.199219 249.078125 285.207031 250.644531 284.175781 252.1875 C 283.144531 253.730469 282.074219 255.25 280.96875 256.738281 C 279.863281 258.230469 278.722656 259.691406 277.546875 261.125 C 276.371094 262.558594 275.15625 263.964844 273.910156 265.339844 C 272.664062 266.714844 271.386719 268.058594 270.074219 269.371094 C 268.761719 270.683594 267.417969 271.960938 266.042969 273.207031 C 264.667969 274.453125 263.265625 275.664062 261.832031 276.84375 C 260.394531 278.019531 258.933594 279.160156 257.445312 280.265625 C 255.953125 281.371094 254.4375 282.4375 252.894531 283.46875 C 251.351562 284.5 249.785156 285.492188 248.191406 286.445312 C 246.601562 287.402344 244.988281 288.316406 243.351562 289.191406 C 241.714844 290.066406 240.058594 290.898438 238.378906 291.691406 C 236.703125 292.484375 235.007812 293.238281 233.292969 293.945312 C 231.578125 294.65625 229.847656 295.324219 228.101562 295.949219 C 226.351562 296.574219 224.589844 297.15625 222.816406 297.695312 C 221.039062 298.234375 219.253906 298.730469 217.453125 299.179688 C 215.652344 299.628906 213.84375 300.039062 212.023438 300.398438 C 210.203125 300.761719 208.375 301.078125 206.539062 301.351562 C 204.703125 301.621094 202.863281 301.851562 201.015625 302.03125 C 199.171875 302.214844 197.320312 302.351562 195.46875 302.441406 C 193.613281 302.53125 191.757812 302.578125 189.902344 302.578125 C 188.046875 302.578125 186.195312 302.53125 184.339844 302.441406 C 182.488281 302.351562 180.636719 302.214844 178.789062 302.03125 C 176.945312 301.851562 175.101562 301.621094 173.269531 301.351562 C 171.433594 301.078125 169.605469 300.761719 167.785156 300.398438 C 165.964844 300.039062 164.15625 299.628906 162.355469 299.179688 C 160.554688 298.730469 158.765625 298.234375 156.992188 297.695312 C 155.214844 297.15625 153.453125 296.574219 151.707031 295.949219 C 149.960938 295.324219 148.230469 294.65625 146.515625 293.945312 C 144.800781 293.238281 143.105469 292.484375 141.429688 291.691406 C 139.75 290.898438 138.09375 290.066406 136.457031 289.191406 C 134.820312 288.316406 133.207031 287.402344 131.617188 286.445312 C 130.023438 285.492188 128.457031 284.5 126.914062 283.46875 C 125.371094 282.4375 123.855469 281.371094 122.363281 280.265625 C 120.875 279.160156 119.410156 278.019531 117.976562 276.84375 C 116.542969 275.664062 115.136719 274.453125 113.761719 273.207031 C 112.386719 271.960938 111.042969 270.683594 109.734375 269.371094 C 108.421875 268.058594 107.140625 266.714844 105.894531 265.339844 C 104.648438 263.964844 103.4375 262.558594 102.261719 261.125 C 101.082031 259.691406 99.941406 258.230469 98.835938 256.738281 C 97.730469 255.25 96.664062 253.730469 95.632812 252.1875 C 94.601562 250.644531 93.609375 249.078125 92.65625 247.488281 C 91.703125 245.894531 90.789062 244.28125 89.914062 242.644531 C 89.039062 241.007812 88.203125 239.351562 87.410156 237.675781 C 86.617188 235.996094 85.867188 234.300781 85.15625 232.585938 C 84.445312 230.871094 83.777344 229.140625 83.152344 227.394531 C 82.527344 225.648438 81.945312 223.886719 81.40625 222.109375 C 80.867188 220.335938 80.375 218.546875 79.921875 216.746094 C 79.472656 214.949219 79.066406 213.136719 78.703125 211.316406 C 78.339844 209.5 78.023438 207.671875 77.753906 205.835938 C 77.480469 204 77.253906 202.160156 77.070312 200.3125 C 76.890625 198.464844 76.753906 196.617188 76.660156 194.761719 C 76.570312 192.910156 76.523438 191.054688 76.523438 189.199219 C 76.523438 187.34375 76.570312 185.488281 76.660156 183.636719 C 76.753906 181.78125 76.890625 179.933594 77.070312 178.085938 C 77.253906 176.238281 77.480469 174.398438 77.753906 172.5625 C 78.023438 170.726562 78.339844 168.898438 78.703125 167.078125 C 79.066406 165.261719 79.472656 163.449219 79.921875 161.648438 C 80.375 159.851562 80.867188 158.0625 81.40625 156.285156 C 81.945312 154.511719 82.527344 152.75 83.152344 151.003906 C 83.777344 149.253906 84.445312 147.523438 85.15625 145.8125 C 85.867188 144.097656 86.617188 142.402344 87.410156 140.722656 C 88.203125 139.046875 89.039062 137.390625 89.914062 135.753906 C 90.789062 134.117188 91.703125 132.503906 92.65625 130.910156 C 93.609375 129.320312 94.601562 127.75 95.632812 126.207031 C 96.664062 124.667969 97.730469 123.148438 98.835938 121.660156 C 99.941406 120.167969 101.082031 118.707031 102.261719 117.273438 C 103.4375 115.835938 104.648438 114.433594 105.894531 113.058594 C 107.140625 111.683594 108.421875 110.339844 109.734375 109.027344 C 111.042969 107.714844 112.386719 106.4375 113.761719 105.191406 C 115.136719 103.945312 116.542969 102.734375 117.976562 101.554688 C 119.410156 100.378906 120.875 99.238281 122.363281 98.132812 C 123.855469 97.027344 125.371094 95.957031 126.914062 94.929688 C 128.457031 93.898438 130.023438 92.90625 131.617188 91.949219 C 133.207031 90.996094 134.820312 90.082031 136.457031 89.207031 C 138.09375 88.332031 139.75 87.5 141.429688 86.707031 C 143.105469 85.914062 144.800781 85.160156 146.515625 84.449219 C 148.230469 83.742188 149.960938 83.074219 151.707031 82.449219 C 153.453125 81.824219 155.214844 81.242188 156.992188 80.703125 C 158.765625 80.164062 160.554688 79.667969 162.355469 79.21875 C 164.15625 78.765625 165.964844 78.359375 167.785156 78 C 169.605469 77.636719 171.433594 77.320312 173.269531 77.046875 C 175.101562 76.773438 176.945312 76.546875 178.789062 76.367188 C 180.636719 76.183594 182.488281 76.046875 184.339844 75.957031 C 186.195312 75.867188 188.046875 75.820312 189.902344 75.820312 C 191.757812 75.820312 193.613281 75.867188 195.46875 75.957031 C 197.320312 76.046875 199.171875 76.183594 201.015625 76.367188 C 202.863281 76.546875 204.703125 76.773438 206.539062 77.046875 C 208.375 77.320312 210.203125 77.636719 212.023438 78 C 213.84375 78.359375 215.652344 78.765625 217.453125 79.21875 C 219.253906 79.667969 221.039062 80.164062 222.816406 80.703125 C 224.589844 81.242188 226.351562 81.824219 228.101562 82.449219 C 229.847656 83.074219 231.578125 83.742188 233.292969 84.449219 C 235.007812 85.160156 236.703125 85.914062 238.378906 86.707031 C 240.058594 87.5 241.714844 88.332031 243.351562 89.207031 C 244.988281 90.082031 246.601562 90.996094 248.191406 91.949219 C 249.785156 92.90625 251.351562 93.898438 252.894531 94.929688 C 254.4375 95.957031 255.953125 97.027344 257.445312 98.132812 C 258.933594 99.238281 260.394531 100.378906 261.832031 101.554688 C 263.265625 102.734375 264.667969 103.945312 266.042969 105.191406 C 267.417969 106.4375 268.761719 107.714844 270.074219 109.027344 C 271.386719 110.339844 272.664062 111.683594 273.910156 113.058594 C 275.15625 114.433594 276.371094 115.835938 277.546875 117.273438 C 278.722656 118.707031 279.863281 120.167969 280.96875 121.660156 C 282.074219 123.148438 283.144531 124.667969 284.175781 126.207031 C 285.207031 127.75 286.199219 129.320312 287.152344 130.910156 C 288.105469 132.503906 289.019531 134.117188 289.894531 135.753906 C 290.769531 137.390625 291.605469 139.046875 292.398438 140.722656 C 293.191406 142.402344 293.941406 144.097656 294.652344 145.8125 C 295.363281 147.523438 296.03125 149.253906 296.65625 151.003906 C 297.28125 152.75 297.863281 154.511719 298.402344 156.285156 C 298.9375 158.0625 299.433594 159.851562 299.886719 161.648438 C 300.335938 163.449219 300.742188 165.261719 301.105469 167.078125 C 301.464844 168.898438 301.785156 170.726562 302.054688 172.5625 C 302.328125 174.398438 302.554688 176.238281 302.738281 178.085938 C 302.917969 179.933594 303.054688 181.78125 303.144531 183.636719 C 303.238281 185.488281 303.28125 187.34375 303.28125 189.199219 Z M 303.28125 189.199219 " fill-opacity="1" fill-rule="nonzero"/></g><g fill="#ffde59" fill-opacity="1"><g transform="translate(170.220443, 216.022013)"><g><path d="M 3.972656 0 L 7.5625 0 L 7.5625 -11.320312 C 7.5625 -16.191406 10.507812 -19.308594 14.695312 -19.308594 C 18.539062 -19.308594 20.933594 -16.574219 20.933594 -12.132812 L 20.933594 0 L 24.519531 0 L 24.519531 -12.472656 C 24.519531 -18.796875 21.015625 -22.726562 15.164062 -22.726562 C 12.300781 -22.726562 9.484375 -21.65625 7.5625 -19.265625 L 7.5625 -31.609375 L 3.972656 -31.609375 Z M 3.972656 0 "/></g></g></g><g fill="#ffde59" fill-opacity="1"><g transform="translate(197.643177, 216.022013)"><g><path d="M 11.234375 0.339844 C 14.824219 0.339844 17.640625 -0.8125 19.648438 -3.074219 L 20.035156 0 L 22.980469 0 L 22.980469 -14.097656 C 22.980469 -19.222656 19.09375 -22.726562 13.285156 -22.726562 C 8.457031 -22.726562 4.828125 -20.121094 3.84375 -15.847656 L 7.476562 -15.847656 C 8.203125 -18.027344 10.464844 -19.394531 13.328125 -19.394531 C 17.085938 -19.394531 19.394531 -17.300781 19.394531 -13.839844 L 19.394531 -13.027344 L 10.335938 -13.027344 C 5.722656 -13.027344 2.691406 -10.421875 2.691406 -6.40625 C 2.691406 -2.222656 5.894531 0.339844 11.234375 0.339844 Z M 6.28125 -6.449219 C 6.28125 -8.542969 7.988281 -9.867188 10.464844 -9.867188 L 19.4375 -9.867188 C 19.308594 -5.765625 15.976562 -2.863281 11.363281 -2.863281 C 8.246094 -2.863281 6.28125 -4.273438 6.28125 -6.449219 Z M 6.28125 -6.449219 "/></g></g></g><g fill="#ffde59" fill-opacity="1"><g transform="translate(223.485469, 216.022013)"><g><path d="M 3.203125 8.542969 L 5.722656 8.542969 C 9.867188 8.542969 11.875 7.519531 13.414062 3.460938 L 23.582031 -22.171875 L 19.777344 -22.171875 L 15.632812 -11.703125 L 12.945312 -4.828125 L 9.695312 -11.703125 L 4.699219 -22.171875 L 0.683594 -22.171875 L 11.191406 -0.511719 L 10.167969 2.09375 C 9.226562 4.570312 8.246094 5.167969 5.382812 5.167969 L 3.203125 5.167969 Z M 3.203125 8.542969 "/></g></g></g><g fill="#ffde59" fill-opacity="1"><g transform="translate(126.710565, 251.955237)"><g><path d="M 3.8125 0.148438 C 5.554688 0.148438 6.679688 -0.707031 6.679688 -2.09375 C 6.679688 -3.265625 5.894531 -3.972656 3.859375 -4.472656 C 2.3125 -4.847656 1.796875 -5.257812 1.796875 -5.917969 C 1.796875 -6.679688 2.480469 -7.160156 3.621094 -7.160156 C 4.792969 -7.160156 5.519531 -6.566406 5.542969 -5.613281 L 6.535156 -5.613281 C 6.523438 -7.160156 5.40625 -8.117188 3.621094 -8.117188 C 1.878906 -8.117188 0.773438 -7.261719 0.773438 -5.917969 C 0.773438 -4.6875 1.652344 -4.007812 3.609375 -3.539062 C 5.042969 -3.199219 5.644531 -2.800781 5.644531 -2.058594 C 5.644531 -1.273438 4.941406 -0.808594 3.8125 -0.808594 C 2.574219 -0.808594 1.707031 -1.421875 1.683594 -2.445312 L 0.683594 -2.445312 C 0.695312 -0.886719 1.914062 0.148438 3.8125 0.148438 Z M 3.8125 0.148438 "/></g></g></g><g fill="#ffde59" fill-opacity="1"><g transform="translate(138.281848, 251.955237)"><g><path d="M 4.144531 0.136719 C 6.066406 0.136719 7.226562 -1.125 7.226562 -3.242188 L 7.226562 -7.96875 L 6.226562 -7.96875 L 6.226562 -3.3125 C 6.226562 -1.683594 5.507812 -0.84375 4.144531 -0.84375 C 2.789062 -0.84375 2.058594 -1.683594 2.058594 -3.3125 L 2.058594 -7.96875 L 1.070312 -7.96875 L 1.070312 -3.242188 C 1.070312 -1.125 2.21875 0.136719 4.144531 0.136719 Z M 4.144531 0.136719 "/></g></g></g><g fill="#ffde59" fill-opacity="1"><g transform="translate(150.785851, 251.955237)"><g><path d="M 3.8125 0.148438 C 5.554688 0.148438 6.679688 -0.707031 6.679688 -2.09375 C 6.679688 -3.265625 5.894531 -3.972656 3.859375 -4.472656 C 2.3125 -4.847656 1.796875 -5.257812 1.796875 -5.917969 C 1.796875 -6.679688 2.480469 -7.160156 3.621094 -7.160156 C 4.792969 -7.160156 5.519531 -6.566406 5.542969 -5.613281 L 6.535156 -5.613281 C 6.523438 -7.160156 5.40625 -8.117188 3.621094 -8.117188 C 1.878906 -8.117188 0.773438 -7.261719 0.773438 -5.917969 C 0.773438 -4.6875 1.652344 -4.007812 3.609375 -3.539062 C 5.042969 -3.199219 5.644531 -2.800781 5.644531 -2.058594 C 5.644531 -1.273438 4.941406 -0.808594 3.8125 -0.808594 C 2.574219 -0.808594 1.707031 -1.421875 1.683594 -2.445312 L 0.683594 -2.445312 C 0.695312 -0.886719 1.914062 0.148438 3.8125 0.148438 Z M 3.8125 0.148438 "/></g></g></g><g fill="#ffde59" fill-opacity="1"><g transform="translate(162.357132, 251.955237)"><g><path d="M 6.386719 0 L 7.386719 0 L 7.386719 -7.96875 L 6.386719 -7.96875 L 6.386719 -4.542969 L 2.164062 -4.542969 L 2.164062 -7.96875 L 1.160156 -7.96875 L 1.160156 0 L 2.164062 0 L 2.164062 -3.585938 L 6.386719 -3.585938 Z M 6.386719 0 "/></g></g></g><g fill="#ffde59" fill-opacity="1"><g transform="translate(175.111378, 251.955237)"><g><path d="M 1.160156 0 L 2.164062 0 L 2.164062 -7.96875 L 1.160156 -7.96875 Z M 1.160156 0 "/></g></g></g><g fill="#ffde59" fill-opacity="1"><g transform="translate(182.644684, 251.955237)"><g/></g></g><g fill="#ffde59" fill-opacity="1"><g transform="translate(189.677507, 251.955237)"><g><path d="M 3.324219 0.148438 C 4.3125 0.148438 5.121094 -0.125 5.738281 -0.636719 L 6.363281 0 L 7.648438 0 L 6.339844 -1.332031 C 6.773438 -1.980469 7 -2.835938 7.023438 -3.859375 L 6.066406 -3.859375 C 6.054688 -3.140625 5.90625 -2.527344 5.644531 -2.046875 L 3.859375 -3.859375 C 5.214844 -4.382812 5.894531 -5.15625 5.894531 -6.144531 C 5.894531 -7.320312 4.941406 -8.117188 3.550781 -8.117188 C 2.175781 -8.117188 1.242188 -7.351562 1.242188 -6.238281 C 1.242188 -5.53125 1.605469 -4.882812 2.230469 -4.199219 C 1.125 -3.675781 0.613281 -2.972656 0.613281 -2.003906 C 0.613281 -0.648438 1.628906 0.148438 3.324219 0.148438 Z M 1.570312 -2.027344 C 1.570312 -2.664062 1.992188 -3.152344 2.890625 -3.515625 L 5.042969 -1.320312 C 4.609375 -0.96875 4.027344 -0.773438 3.335938 -0.773438 C 2.242188 -0.773438 1.570312 -1.242188 1.570312 -2.027344 Z M 2.175781 -6.25 C 2.175781 -6.851562 2.707031 -7.238281 3.539062 -7.238281 C 4.40625 -7.238281 4.960938 -6.816406 4.960938 -6.144531 C 4.960938 -5.507812 4.425781 -5.03125 3.175781 -4.574219 C 2.445312 -5.347656 2.175781 -5.816406 2.175781 -6.25 Z M 2.175781 -6.25 "/></g></g></g><g fill="#ffde59" fill-opacity="1"><g transform="translate(201.954019, 251.955237)"><g/></g></g><g fill="#ffde59" fill-opacity="1"><g transform="translate(208.986842, 251.955237)"><g><path d="M 1.160156 0 L 2.164062 0 L 2.164062 -2.617188 L 3.859375 -2.617188 C 5.65625 -2.617188 6.816406 -3.652344 6.816406 -5.292969 C 6.816406 -6.921875 5.65625 -7.96875 3.859375 -7.96875 L 1.160156 -7.96875 Z M 2.164062 -3.550781 L 2.164062 -7.011719 L 3.835938 -7.011719 C 5.121094 -7.011719 5.792969 -6.417969 5.792969 -5.28125 C 5.792969 -4.144531 5.121094 -3.550781 3.835938 -3.550781 Z M 2.164062 -3.550781 "/></g></g></g><g fill="#ffde59" fill-opacity="1"><g transform="translate(220.467134, 251.955237)"><g><path d="M 4.78125 0.148438 C 7.203125 0.148438 8.914062 -1.558594 8.914062 -3.984375 C 8.914062 -6.40625 7.203125 -8.117188 4.78125 -8.117188 C 2.355469 -8.117188 0.660156 -6.40625 0.660156 -3.984375 C 0.660156 -1.558594 2.355469 0.148438 4.78125 0.148438 Z M 1.683594 -3.984375 C 1.683594 -5.839844 2.949219 -7.113281 4.78125 -7.113281 C 6.613281 -7.113281 7.875 -5.839844 7.875 -3.984375 C 7.875 -2.128906 6.613281 -0.855469 4.78125 -0.855469 C 2.949219 -0.855469 1.683594 -2.128906 1.683594 -3.984375 Z M 1.683594 -3.984375 "/></g></g></g><g fill="#ffde59" fill-opacity="1"><g transform="translate(234.233712, 251.955237)"><g><path d="M 1.160156 0 L 2.164062 0 L 2.164062 -3.585938 L 3.300781 -3.585938 C 3.609375 -3.585938 3.882812 -3.609375 4.132812 -3.652344 L 6.191406 0 L 7.351562 0 L 5.066406 -4.019531 C 5.519531 -4.3125 5.839844 -4.769531 6.066406 -5.371094 L 7.046875 -7.96875 L 5.988281 -7.96875 L 5.167969 -5.769531 C 4.847656 -4.90625 4.382812 -4.542969 3.300781 -4.542969 L 2.164062 -4.542969 L 2.164062 -7.96875 L 1.160156 -7.96875 Z M 1.160156 0 "/></g></g></g><g fill="#ffde59" fill-opacity="1"><g transform="translate(246.225855, 251.955237)"><g><path d="M 1.160156 0 L 6.125 0 L 6.125 -0.933594 L 2.164062 -0.933594 L 2.164062 -3.597656 L 5.714844 -3.597656 L 5.714844 -4.519531 L 2.164062 -4.519531 L 2.164062 -7.035156 L 6 -7.035156 L 6 -7.96875 L 1.160156 -7.96875 Z M 1.160156 0 "/></g></g></g><g fill="#ffde59" fill-opacity="1"><g transform="translate(100.647181, 169.33192)"><g><path d="M 66.203125 -40.929688 C 64.886719 -40.601562 63.25 -40.621094 61.28125 -40.914062 L 41.378906 -43.863281 C 42.101562 -44.726562 42.742188 -45.523438 43.308594 -46.335938 C 44.242188 -47.613281 45.921875 -49.898438 47.371094 -51.621094 L 41.121094 -54.707031 C 40.332031 -52.886719 38.847656 -50.425781 37.925781 -49.21875 C 33.660156 -43.070312 24.453125 -33.257812 10.769531 -27.390625 L 15.089844 -22.875 C 24.078125 -27.203125 31.628906 -33.386719 37.253906 -39.183594 L 62.046875 -35.507812 C 59.804688 -29.953125 55.121094 -22.972656 49.753906 -17.4375 C 44.574219 -21.707031 38.96875 -26.113281 35.0625 -28.929688 L 30.707031 -25.179688 C 34.457031 -22.3125 40.039062 -17.757812 45.25 -13.1875 C 37.53125 -6.878906 27.015625 -1.285156 13.757812 0.699219 L 18.335938 5.996094 C 31.871094 3.160156 42.117188 -2.621094 49.792969 -9.160156 C 52.28125 -6.851562 54.429688 -4.746094 55.972656 -3.101562 L 60.761719 -7.757812 C 59.132812 -9.339844 56.902344 -11.382812 54.394531 -13.542969 C 60.554688 -19.933594 65.472656 -27.476562 68.25 -33.621094 C 68.859375 -34.722656 69.773438 -36.375 70.507812 -37.308594 Z M 66.203125 -40.929688 "/></g></g></g><g fill="#ffde59" fill-opacity="1"><g transform="translate(121.469198, 213.273921)"><g><path d="M 62.613281 -61.511719 C 58.203125 -55.917969 49.933594 -49.066406 41.898438 -44.105469 C 33.234375 -38.671875 19.847656 -32.683594 6.695312 -29.613281 L 10.316406 -23.46875 C 20.636719 -26.542969 31.503906 -31.109375 39.929688 -35.757812 L 39.929688 -5.984375 C 39.929688 -2.992188 39.695312 0.945312 39.457031 2.441406 L 47.175781 2.441406 C 46.863281 0.867188 46.703125 -2.992188 46.703125 -5.984375 L 46.703125 -39.695312 C 54.816406 -44.8125 62.378906 -51.273438 67.8125 -56.785156 Z M 62.613281 -61.511719 "/></g></g></g></svg>