<svg xmlns="http://www.w3.org/2000/svg" viewBox="0 0 750 500"><g id="freepik--background-complete--inject-94"><path d="M41,381.34a34.86,34.86,0,0,0-15-5.16c-2.45-.25-5.12-.18-7.09,1.3a1.49,1.49,0,0,0-.73,1.3,1.55,1.55,0,0,0,.7.88c6.09,4.65,15.31,5.24,22.1,1.68" style="fill:#e0e0e0"></path><path d="M40.66,380.91A72.63,72.63,0,0,1,31,372.4a24.5,24.5,0,0,1-6.07-11.22,4.51,4.51,0,0,1,.48-3.75c7.72,6,13.78,13.81,15.27,23.48" style="fill:#e0e0e0"></path><path d="M41,381.28a35,35,0,0,1,.18-12.71,17.22,17.22,0,0,1,6.77-10.48c1.33,3.12.76,6.71-.18,10A48.43,48.43,0,0,1,41,382.18" style="fill:#e0e0e0"></path><path d="M48.52,394.83c-4.59.56-8.58,3-12,6.08a22.67,22.67,0,0,0-6.87,11.8c4.5-.28,8.32-3.46,11.09-7s4.69-7.46,7.73-10.79" style="fill:#e0e0e0"></path><path d="M50.17,397a29.62,29.62,0,0,1,3.42-28c2.61,9.31,1.65,19.81-3.42,28" style="fill:#e0e0e0"></path><path d="M60.16,408.89a21.45,21.45,0,0,0-20.49,11.79c-.26.51-.48,1.16-.14,1.61a1.54,1.54,0,0,0,1.36.4c4-.26,7.61-2.69,10.57-5.46s5.52-6,8.79-8.35" style="fill:#e0e0e0"></path><path d="M59.84,408.24a38.05,38.05,0,0,1-.38-21.31c.75-2.75,2-5.64,4.54-6.92a.88.88,0,0,1,.7-.12.89.89,0,0,1,.44.51,12.75,12.75,0,0,1,1.07,6.11,37.06,37.06,0,0,1-1,6.19c-.79,3.78-1.22,7.85-3.29,11.11a22.18,22.18,0,0,0-1.32,2.44c-.4.83-.4,1.13-.76,1.79" style="fill:#e0e0e0"></path><path d="M86.28,412.18c-2-7.45.12-16.49,4.82-22.59.34-.45.8-.94,1.37-.88.86.08,1.09,1.23,1,2.1a40.78,40.78,0,0,1-7.24,21.37" style="fill:#e0e0e0"></path><path d="M88.67,413.81c9,2.36,19.44.07,27-5.48a21.82,21.82,0,0,0-14.6-1.8c-4.88,1.12-9.34,3.31-12.37,7.28" style="fill:#e0e0e0"></path><path d="M90.68,408.85c5.07-8.27,14.79-13.66,24.48-14.16-1.12,3.94-4.36,7-8,8.86S99.42,406.2,95.4,407c-1.56.31-3.71.64-4.72,1.87" style="fill:#e0e0e0"></path><path d="M86.79,384.77a71.45,71.45,0,0,0,3.13-14.34c.37-4.88-.32-10-2.86-14.18-4.74,9.17-5.21,19.88-.42,29" style="fill:#e0e0e0"></path><path d="M102.73,376.71c5.54-10.07,16.84-18.11,28.28-19.24-4.41,11-16.44,19.48-28.28,19.24" style="fill:#e0e0e0"></path><path d="M99.25,378.68c8.26,1.26,15.3,6.54,23,9.74a10.26,10.26,0,0,0,5.2,1,4.07,4.07,0,0,0,2.55-7.2,11.07,11.07,0,0,0-3.78-2.3c-8.41-3.5-17.42-3.58-26.28-1.46" style="fill:#e0e0e0"></path><path d="M94.47,384.48c1.87.53,2.51,1.5,4,2.76a43,43,0,0,0,17.45,9c.67.17,1.55.23,1.88-.37s-.08-1.16-.45-1.63a24.1,24.1,0,0,0-10.54-7.16c-4-1.5-7.52-3.31-12.33-2.92" style="fill:#e0e0e0"></path><path d="M89.07,349.48a33.05,33.05,0,0,0,25.33,8.62,1.76,1.76,0,0,0,1.15-.41c.64-.7-.12-1.77-.87-2.35-7.44-5.8-16.46-8.21-25.61-5.86" style="fill:#e0e0e0"></path><path d="M95.47,347.14a35.26,35.26,0,0,1,31.6-5.21A25.1,25.1,0,0,1,112,348.54a47.61,47.61,0,0,1-16.54-1.4" style="fill:#e0e0e0"></path><path d="M92.93,331.06c-.73-7.43-.26-13.3-.78-20.77,0-.59-.16-1.31-.72-1.53-.78-.3-1.43.66-1.68,1.45a23.77,23.77,0,0,0,3.17,20.69" style="fill:#e0e0e0"></path><path d="M92.39,331.88a43.53,43.53,0,0,0,12.31-12c2.44-3.33,4.49-7.32,3.93-11.4a11.77,11.77,0,0,0-8.88,4.41A24.66,24.66,0,0,0,95.23,322c-1,3.27-1.68,6.63-2.84,9.84" style="fill:#e0e0e0"></path><path d="M104.49,328.52a99.31,99.31,0,0,0,30.3-17.87c-3.62-1.45-7.76-.58-11.38.88-8.27,3.34-15,9-19.08,16.91" style="fill:#e0e0e0"></path><path d="M95.79,336c5.6.61,11.28,1,16.83.08s10.61-3.07,15.7-5.22a1.82,1.82,0,0,0,1.07-.81,1.22,1.22,0,0,0-.38-1.34,3.13,3.13,0,0,0-1.34-.63c-5.54-1.55-11.52-.83-17,1A78.8,78.8,0,0,0,95.79,336" style="fill:#e0e0e0"></path><path d="M63.86,349.74C60,342,60.29,333,63.58,325.1c2.32,3.54,2.61,8,2.18,12.25s-1.7,8.54-1.79,12.77" style="fill:#e0e0e0"></path><path d="M48.61,342.05a34.38,34.38,0,0,0-25.53,10.87c4.76.75,9.66-.48,14-2.59a70.36,70.36,0,0,0,12-8" style="fill:#e0e0e0"></path><path d="M38.36,338.62c-4.66-.38-9.14-1-13.63.42a16.32,16.32,0,0,0-10.38,8.8,24.51,24.51,0,0,0,12.77-2.41,73.61,73.61,0,0,0,11.24-6.81" style="fill:#e0e0e0"></path><path d="M53.54,338.78c-4.2-2.75-8.5-5.55-13.38-6.69s-10.54-.29-13.95,3.39c3.95,2.32,8.75,2.59,13.33,2.59s10.2-.06,14.52,1.47" style="fill:#e0e0e0"></path><path d="M53.56,339c-7.17-7-9.88-19.69-7-29.31a44.66,44.66,0,0,1,7,29.31" style="fill:#e0e0e0"></path><path d="M73.27,319.05c1.35-3.14,2.31-6.44,3.52-9.64a27.68,27.68,0,0,1,5-8.89,13.2,13.2,0,0,1,8.88-4.6A35.74,35.74,0,0,1,73.45,319.1" style="fill:#e0e0e0"></path><path d="M69.71,323.21c-2.24-3.08-4.83-7.26-7.86-9.56s-7-3.69-10.69-2.81a24.89,24.89,0,0,0,18.55,12.37" style="fill:#e0e0e0"></path><path d="M70.42,319.31a53.42,53.42,0,0,1-3.54-11.45,17.88,17.88,0,0,1,1.8-11.65c3.93,7.44,5.2,15.43,1.94,23.18" style="fill:#e0e0e0"></path><path d="M73.31,296.21c2.23-7.37,9-12.8,16.27-15.29a6,6,0,0,1,2.85-.43,2.47,2.47,0,0,1,2.1,1.75c.27,1.26-.77,2.38-1.74,3.22a55.51,55.51,0,0,1-19.48,10.75" style="fill:#e0e0e0"></path><path d="M73.39,290.18c.28-4.75.58-9.58,2.13-14.08s4.52-8.73,8.86-10.7c.74,4.8-1.38,9.58-3.94,13.71s-5.63,8-7.17,12.64" style="fill:#e0e0e0"></path><path d="M73.27,293.45c-1.84-5.37-2-12.2-5.25-16.88-2.25-3.27-5.85-5.5-7.79-9a13.69,13.69,0,0,0,.46,10.19,29.48,29.48,0,0,0,6,8.52c2.38,2.54,4.42,4.45,6.63,7.14" style="fill:#e0e0e0"></path><path d="M73.31,451.71c-.14,0-.27-35.85-.28-80.06s.1-80.07.24-80.07.27,35.84.28,80.07S73.45,451.71,73.31,451.71Z" style="fill:#e0e0e0"></path><path d="M104.64,344.33a8.14,8.14,0,0,1-1.35.5l-3.71,1.25c-3.13,1.07-7.42,2.61-12.09,4.52s-9,3.59-11.45,5.74a8.36,8.36,0,0,0-2.3,3.05c-.36.84-.42,1.35-.47,1.34a1.3,1.3,0,0,1,0-.37,5.58,5.58,0,0,1,.26-1.05,8.09,8.09,0,0,1,2.25-3.24,19.9,19.9,0,0,1,5-3.09c2-.93,4.19-1.89,6.53-2.86,4.67-1.91,9-3.41,12.17-4.38,1.58-.5,2.87-.86,3.76-1.1A7.37,7.37,0,0,1,104.64,344.33Z" style="fill:#e0e0e0"></path><path d="M114.91,319.1s-.12.16-.38.41-.69.64-1.15,1.08l-4.3,3.9L94.79,337.22c-5.58,5-10.4,9.71-13.74,13.28-1.68,1.79-3,3.26-3.89,4.3l-1,1.18c-.24.27-.38.41-.39.39a2.47,2.47,0,0,1,.31-.45c.21-.29.53-.72,1-1.25.85-1.08,2.13-2.6,3.78-4.42a182.6,182.6,0,0,1,13.66-13.42c5.6-5,10.7-9.41,14.4-12.62l4.4-3.77,1.22-1A2,2,0,0,1,114.91,319.1Z" style="fill:#e0e0e0"></path><path d="M88.77,342.27c-.15-.07,1-2.76,2.18-6.16s1.72-6.28,1.87-6.26a21.41,21.41,0,0,1-1.38,6.42,42.16,42.16,0,0,1-1.74,4.31A7.53,7.53,0,0,1,88.77,342.27Z" style="fill:#e0e0e0"></path><path d="M73.34,364a5.86,5.86,0,0,1-.86-1l-2.2-2.83c-1.85-2.39-4.41-5.69-7.28-9.3s-5.5-6.86-7.41-9.2l-2.25-2.79a8,8,0,0,1-.78-1.06,5.73,5.73,0,0,1,.93.93c.58.62,1.39,1.54,2.38,2.68,2,2.29,4.67,5.5,7.54,9.11s5.39,7,7.16,9.41c.89,1.23,1.6,2.23,2.07,2.93A6.42,6.42,0,0,1,73.34,364Z" style="fill:#e0e0e0"></path><path d="M66.47,355.15a12.85,12.85,0,0,1-2.88-5.39,15.75,15.75,0,0,1-.65-5.43l.23,0c-.1.41-.18.63-.22.62s0-.24,0-.66l.23,0a25.12,25.12,0,0,0,.92,5.28A41.39,41.39,0,0,0,66.47,355.15Z" style="fill:#e0e0e0"></path><path d="M57.6,344a9,9,0,0,0-2-1.17,13.46,13.46,0,0,0-5.58-.44,34,34,0,0,0-5.62.91,17.17,17.17,0,0,1-2.31.55,8,8,0,0,1,2.21-.91A26.15,26.15,0,0,1,50,341.86a12.21,12.21,0,0,1,5.75.62A3.55,3.55,0,0,1,57.6,344Z" style="fill:#e0e0e0"></path><path d="M55.5,341.29c0,.08-1.17-.47-3.08-1.12a31,31,0,0,0-7.68-1.58,31.66,31.66,0,0,0-7.83.39c-2,.36-3.18.73-3.21.64a3.23,3.23,0,0,1,.82-.34,19.62,19.62,0,0,1,2.32-.66,27.77,27.77,0,0,1,7.94-.55,27.48,27.48,0,0,1,7.77,1.75,20.07,20.07,0,0,1,2.2,1C55.25,341.09,55.52,341.25,55.5,341.29Z" style="fill:#e0e0e0"></path><path d="M73.27,329.85A63.13,63.13,0,0,1,71,322.06a63.44,63.44,0,0,1-1.74-7.93,66.55,66.55,0,0,1,2.24,7.8A63.52,63.52,0,0,1,73.27,329.85Z" style="fill:#e0e0e0"></path><path d="M73.42,329.85a38.08,38.08,0,0,0-2.49-4.66,20.44,20.44,0,0,0-3.66-3.78,3.4,3.4,0,0,1,1.41.73,11.15,11.15,0,0,1,2.67,2.75A10.5,10.5,0,0,1,73.42,329.85Z" style="fill:#e0e0e0"></path><path d="M73.31,432.6c-.06,0-.16-.86-.57-2.38A34.43,34.43,0,0,0,70.35,424c-2.48-5.06-7-11.48-12.71-17.91-2.84-3.24-5.59-6.3-7.93-9.23A65.49,65.49,0,0,1,44,388.7a38.53,38.53,0,0,1-2.86-6.07c-.26-.75-.46-1.33-.56-1.73a2.45,2.45,0,0,1-.15-.62c.05,0,.31.82.9,2.28a44.19,44.19,0,0,0,3,5.95,67.88,67.88,0,0,0,5.72,8.07c2.35,2.89,5.11,5.94,8,9.18,5.74,6.45,10.24,12.95,12.65,18.09a31,31,0,0,1,2.26,6.32,16.75,16.75,0,0,1,.32,1.8A2.71,2.71,0,0,1,73.31,432.6Z" style="fill:#e0e0e0"></path><path d="M101.62,400.63a17,17,0,0,1-1.49.83A32,32,0,0,0,96.29,404a44.76,44.76,0,0,0-5.06,4.61c-1.77,1.88-3.6,4.05-5.46,6.38-3.73,4.68-7.22,8.82-9.31,12.13-1.06,1.64-1.83,3-2.33,4a11.3,11.3,0,0,1-.82,1.49s0-.15.14-.42.26-.67.49-1.16a39.62,39.62,0,0,1,2.21-4.1c2-3.38,5.49-7.58,9.21-12.25,1.87-2.34,3.72-4.52,5.53-6.39a40.31,40.31,0,0,1,5.18-4.57,26.6,26.6,0,0,1,4-2.43c.49-.25.89-.4,1.16-.51S101.61,400.61,101.62,400.63Z" style="fill:#e0e0e0"></path><path d="M102.17,411a20.62,20.62,0,0,1-3.13.45,41.61,41.61,0,0,0-7.44,1.47,22.42,22.42,0,0,0-6.66,3.49c-1.54,1.19-2.26,2.17-2.33,2.11a2.32,2.32,0,0,1,.46-.72,12.34,12.34,0,0,1,1.64-1.67,20.11,20.11,0,0,1,6.73-3.7A33.38,33.38,0,0,1,99,411.09,17.08,17.08,0,0,1,102.17,411Z" style="fill:#e0e0e0"></path><path d="M83.52,417.39c-.16-.1,1.25-2.26,2.35-5.16s1.27-5.5,1.45-5.47a4.71,4.71,0,0,1,0,1.68,18.16,18.16,0,0,1-.91,4A19.31,19.31,0,0,1,84.54,416,5.1,5.1,0,0,1,83.52,417.39Z" style="fill:#e0e0e0"></path><path d="M110.79,372.78a2.84,2.84,0,0,1-.51.26l-1.47.67c-.64.28-1.43.63-2.31,1.1s-1.92.93-3,1.57c-.54.31-1.11.64-1.71,1s-1.18.75-1.8,1.14c-1.26.77-2.53,1.71-3.88,2.67A66.38,66.38,0,0,0,81.2,396.6c-.92,1.38-1.82,2.67-2.54,4-.37.64-.75,1.24-1.07,1.84s-.62,1.19-.92,1.74c-.61,1.1-1,2.15-1.47,3.05s-.76,1.7-1,2.35-.46,1.1-.62,1.5a2.53,2.53,0,0,1-.25.51,2.34,2.34,0,0,1,.15-.55c.14-.4.32-.91.53-1.53s.53-1.48.94-2.39.81-2,1.41-3.1l.89-1.77c.31-.61.69-1.22,1.05-1.87.71-1.3,1.6-2.62,2.51-4a64.06,64.06,0,0,1,15-15.55c1.37-1,2.65-1.9,3.93-2.65.63-.39,1.23-.79,1.83-1.12l1.74-.95c1.09-.63,2.14-1.08,3-1.51a24.76,24.76,0,0,1,2.36-1l1.52-.58A1.89,1.89,0,0,1,110.79,372.78Z" style="fill:#e0e0e0"></path><path d="M88.38,387.79A3.72,3.72,0,0,1,89.61,386a7.82,7.82,0,0,1,5-1.9,13.55,13.55,0,0,1,5.22,1,7.66,7.66,0,0,1,2,1,12.32,12.32,0,0,1-2.1-.61,15.61,15.61,0,0,0-5.09-.85,8.1,8.1,0,0,0-4.74,1.66A15.18,15.18,0,0,0,88.38,387.79Z" style="fill:#e0e0e0"></path><path d="M85,391.24a18.46,18.46,0,0,0,1.41-4.58,19.13,19.13,0,0,0-.31-4.79,3.18,3.18,0,0,1,.58,1.34,9.45,9.45,0,0,1,.25,3.51,9.72,9.72,0,0,1-1,3.36C85.47,390.87,85.08,391.28,85,391.24Z" style="fill:#e0e0e0"></path><path d="M48.55,437.74c.77,13.7,4.9,27.63,11.25,41.72H87.41c6.06-13.95,9.9-27.86,10.59-41.72Z" style="fill:#e0e0e0"></path><path d="M93.52,459.91c0,.14-9.09.26-20.3.26s-20.31-.12-20.31-.26,9.09-.26,20.31-.26S93.52,459.76,93.52,459.91Z" style="fill:#fafafa"></path><path d="M92.9,464.87c0,.14-8.52.26-19,.26s-19-.12-19-.26,8.52-.26,19-.26S92.9,464.73,92.9,464.87Z" style="fill:#fafafa"></path><path d="M60.25,446.73a77.92,77.92,0,0,1,0,12.72,77.92,77.92,0,0,1,0-12.72Z" style="fill:#fafafa"></path><path d="M75,446.73a83.65,83.65,0,0,1,0,13.18,83.65,83.65,0,0,1,0-13.18Z" style="fill:#fafafa"></path><path d="M88.93,446.62a87,87,0,0,1,0,13.44,87,87,0,0,1,0-13.44Z" style="fill:#fafafa"></path><path d="M97.12,446.73c0,.15-10.66.26-23.82.26s-23.81-.11-23.81-.26,10.66-.26,23.81-.26S97.12,446.59,97.12,446.73Z" style="fill:#fafafa"></path><rect x="128.24" y="156.46" width="8.35" height="145.6" style="fill:#ebebeb"></rect><rect x="91.63" y="107.99" width="77.7" height="77.7" rx="12.19" style="fill:#e0e0e0"></rect><path d="M111.72,146.64c0-7.28,4-11.41,9.45-11.41s9.45,4.13,9.45,11.41-4,11.4-9.45,11.4S111.72,153.91,111.72,146.64Zm13.77,0c0-5-1.77-7.09-4.32-7.09s-4.28,2.08-4.28,7.09,1.76,7.08,4.28,7.08S125.49,151.64,125.49,146.64Z" style="fill:#f5f5f5"></path><path d="M153.3,153h-3.6v4.63h-5V153H132.86V149.6l10.39-14h5.35L139,148.87h5.93v-4.12h4.81v4.12h3.6Z" style="fill:#f5f5f5"></path><rect x="264.27" y="27.08" width="303.73" height="70.68" style="fill:#e0e0e0"></rect><path d="M300.64,70.3l.79-1.57a9.44,9.44,0,0,0,6.35,2.34c3.6,0,5.16-1.51,5.16-3.41,0-5.27-11.83-2-11.83-9.15,0-2.82,2.19-5.27,7.08-5.27a10.86,10.86,0,0,1,6,1.7l-.69,1.62A9.88,9.88,0,0,0,308.19,55c-3.51,0-5.08,1.57-5.08,3.49,0,5.27,11.84,2.09,11.84,9.09,0,2.83-2.25,5.25-7.17,5.25C304.9,72.8,302.07,71.78,300.64,70.3Z" style="fill:#fafafa"></path><path d="M333,70.87v1.76H319.37V53.41h13.18v1.75H321.4V62h9.94v1.73H321.4v7.14Z" style="fill:#fafafa"></path><path d="M337.73,53.41h2V70.87h10.76v1.76h-12.8Z" style="fill:#fafafa"></path><path d="M355.94,55.16v7.56h9.94v1.75h-9.94v8.16h-2V53.41h13.18v1.75Z" style="fill:#fafafa"></path><path d="M377,63c0-5.8,4.45-9.94,10.44-9.94a9.93,9.93,0,0,1,7.91,3.4l-2.86,2.64a6.19,6.19,0,0,0-4.83-2.25,6.15,6.15,0,1,0,0,12.3,6.12,6.12,0,0,0,4.83-2.28l2.86,2.64A9.91,9.91,0,0,1,387.41,73C381.45,73,377,68.81,377,63Z" style="fill:#fafafa"></path><path d="M416,53.41V72.63h-4.45V64.75h-8.74v7.88h-4.45V53.41h4.45V61h8.74V53.41Z" style="fill:#fafafa"></path><path d="M435.41,69.06v3.57H420.52V53.41h14.53V57H424.94v4.17h8.93v3.46h-8.93v4.45Z" style="fill:#fafafa"></path><path d="M437.68,63c0-5.8,4.45-9.94,10.44-9.94a9.91,9.91,0,0,1,7.91,3.4l-2.86,2.64a6.19,6.19,0,0,0-4.83-2.25,6.15,6.15,0,1,0,0,12.3,6.12,6.12,0,0,0,4.83-2.28L456,69.53A9.89,9.89,0,0,1,448.09,73C442.13,73,437.68,68.81,437.68,63Z" style="fill:#fafafa"></path><path d="M466,65.08l-2.58,2.69v4.86H459V53.41h4.42v9l8.51-9h4.95l-8,8.56,8.43,10.66h-5.19Z" style="fill:#fafafa"></path><path d="M477.44,63c0-5.71,4.45-9.94,10.52-9.94s10.52,4.2,10.52,9.94S494,73,488,73,477.44,68.73,477.44,63ZM494,63a6,6,0,1,0-6,6.15A5.86,5.86,0,0,0,494,63Z" style="fill:#fafafa"></path><path d="M501.66,64.17V53.41h4.45V64c0,3.65,1.59,5.16,4.28,5.16s4.29-1.51,4.29-5.16V53.41h4.39V64.17c0,5.66-3.24,8.79-8.7,8.79S501.66,69.83,501.66,64.17Z" style="fill:#fafafa"></path><path d="M527.11,57H521V53.41h16.76V57h-6.16v15.6h-4.45Z" style="fill:#fafafa"></path><path d="M289.08,4.77c.14,0,.26,5.21.26,11.63S289.22,28,289.08,28s-.26-5.2-.26-11.62S288.94,4.77,289.08,4.77Z" style="fill:#e0e0e0"></path><path d="M536.62,4.77c.14,0,.26,5.21.26,11.63S536.76,28,536.62,28s-.26-5.2-.26-11.62S536.47,4.77,536.62,4.77Z" style="fill:#e0e0e0"></path><rect x="206" y="146.91" width="337.33" height="332.51" style="fill:#e0e0e0"></rect><path d="M675.06,261.63s-7.92-.57-7.19,17.2,2.54,27.22,2.54,27.22-.24,3.94-3.29,3.17-8.78-4.61-11.62-1.74-1.89,7.53,2,12.89,12,17.45,12.73,18.54,1,3.09-1.16,2.9-16.75-5.14-18.69,1.93,11.39,20.23,12.82,21.7,1.5,2.4.92,3.29-5.32-1.24-9.53-2.48-9.31-1.93-10.08,2.24,5.09,16.37,27.06,29.2L682.15,403l10-6.38c20.58-15,25.2-27.69,24-31.77S710,362,705.91,363.61s-8.58,4.24-9.25,3.41-.68-1.75.6-3.36,13.21-16,10.58-22.88-16.66-.45-18.79,0-2-1.63-1.45-2.77,7.48-14,10.82-19.72,3.93-10.37.71-13-8.44,1.82-11.39,2.89-3.59-2.82-3.59-2.82.86-9.6-.19-27.34-9.07-16.32-9.07-16.32" style="fill:#ebebeb"></path><path d="M675.68,277.54s0,.13,0,.37,0,.63.09,1.09c.06,1,.16,2.39.28,4.2.24,3.64.56,8.92.92,15.43.72,13,1.57,31.06,2.44,51s1.67,37.93,2.32,51c.33,6.5.6,11.78.78,15.44.09,1.81.16,3.22.21,4.2,0,.46,0,.83,0,1.09a3.39,3.39,0,0,1,0,.37s0-.12,0-.37,0-.62-.09-1.09c-.06-1-.16-2.38-.28-4.19-.24-3.64-.56-8.92-.92-15.44-.72-13-1.57-31.05-2.44-51s-1.67-37.92-2.32-51c-.33-6.51-.6-11.78-.78-15.44-.09-1.81-.16-3.22-.21-4.2,0-.47,0-.83-.05-1.1A3.49,3.49,0,0,1,675.68,277.54Z" style="fill:#e0e0e0"></path><path d="M663.31,313.16a3.41,3.41,0,0,1,.66.55c.41.37,1,.92,1.68,1.61,1.39,1.38,3.27,3.34,5.3,5.54l5.17,5.66,1.57,1.7a3.41,3.41,0,0,1,.55.66,3.81,3.81,0,0,1-.66-.55c-.41-.37-1-.92-1.67-1.62-1.38-1.39-3.23-3.37-5.26-5.57l-5.21-5.62-1.58-1.7A3.41,3.41,0,0,1,663.31,313.16Z" style="fill:#e0e0e0"></path><path d="M679.29,328.53c-.08-.08,3.78-4.13,8.63-9s8.84-8.84,8.92-8.76-3.78,4.13-8.63,9S679.37,328.61,679.29,328.53Z" style="fill:#e0e0e0"></path><path d="M679.24,359.16a3.49,3.49,0,0,1,.74-.47l2.07-1.16c1.74-1,4.15-2.35,6.75-3.94s4.91-3.12,6.57-4.23l2-1.32a4.49,4.49,0,0,1,.75-.44,3.36,3.36,0,0,1-.66.57c-.44.35-1.08.84-1.9,1.43-1.62,1.17-3.91,2.73-6.52,4.33s-5,2.93-6.83,3.85c-.89.45-1.62.81-2.13,1.05A4.27,4.27,0,0,1,679.24,359.16Z" style="fill:#e0e0e0"></path><path d="M661.74,348.44a3,3,0,0,1,.73.34c.45.24,1.11.61,1.91,1.07,1.61.91,3.82,2.2,6.25,3.64s4.61,2.77,6.18,3.75l1.85,1.17a3.34,3.34,0,0,1,.65.48,3.64,3.64,0,0,1-.73-.34l-1.92-1.07c-1.6-.91-3.81-2.2-6.24-3.64s-4.61-2.77-6.18-3.75l-1.85-1.17A3,3,0,0,1,661.74,348.44Z" style="fill:#e0e0e0"></path><path d="M658.26,375.47a5.23,5.23,0,0,1,.93.45l2.46,1.36c2.07,1.16,4.91,2.79,8,4.61s5.95,3.48,8,4.71l2.4,1.47a5.6,5.6,0,0,1,.85.58,3.89,3.89,0,0,1-.93-.45l-2.46-1.35c-2.07-1.17-4.92-2.79-8-4.61s-6-3.49-8-4.71l-2.4-1.47A5.14,5.14,0,0,1,658.26,375.47Z" style="fill:#e0e0e0"></path><path d="M680.46,388.18a6.93,6.93,0,0,1,.92-.61L684,386c2.17-1.33,5.16-3.16,8.4-5.28s6.14-4.1,8.22-5.55l2.47-1.71a4.53,4.53,0,0,1,.94-.59,7.66,7.66,0,0,1-.84.71c-.56.45-1.38,1.07-2.4,1.83-2,1.51-4.91,3.54-8.17,5.65s-6.27,3.92-8.47,5.18c-1.11.63-2,1.13-2.64,1.46A4.75,4.75,0,0,1,680.46,388.18Z" style="fill:#e0e0e0"></path><polygon points="696.35 406.43 667.11 406.43 676.65 478.67 686.8 478.67 696.35 406.43" style="fill:#e0e0e0"></polygon><path d="M668.63,415.31s0,.1.15.25a1.77,1.77,0,0,0,.71.51,3.55,3.55,0,0,0,3.08-.38c1.19-.65,2.21-1.93,3.8-2.5a8.26,8.26,0,0,1,5.37.11,23.07,23.07,0,0,1,5,2.42,34.33,34.33,0,0,0,4.07,2.19,11.47,11.47,0,0,0,3,.87,4.78,4.78,0,0,0,.85.05c.2,0,.3,0,.3,0a15.39,15.39,0,0,1-4-1.21,40.65,40.65,0,0,1-4-2.25,22.44,22.44,0,0,0-5.1-2.51,8.56,8.56,0,0,0-5.67-.06,7.45,7.45,0,0,0-2.14,1.32,15.61,15.61,0,0,1-1.67,1.3,3.42,3.42,0,0,1-2.85.49A3,3,0,0,1,668.63,415.31Z" style="fill:#f5f5f5"></path><path d="M669.69,428.61s.23-.3.69-.77a6.46,6.46,0,0,1,2.34-1.49,10.37,10.37,0,0,1,4.06-.61,44.91,44.91,0,0,1,5.09.69,17.16,17.16,0,0,0,5.21.22,14.34,14.34,0,0,0,4.1-1.17,12.76,12.76,0,0,0,2.46-1.46,3.79,3.79,0,0,0,.79-.71,27.4,27.4,0,0,1-3.39,1.86,14.81,14.81,0,0,1-4,1A17.4,17.4,0,0,1,682,426a38.45,38.45,0,0,0-5.15-.66,10.43,10.43,0,0,0-4.21.74,6.17,6.17,0,0,0-2.35,1.67,4.36,4.36,0,0,0-.44.65C669.72,428.52,669.68,428.6,669.69,428.61Z" style="fill:#f5f5f5"></path><path d="M693,435.73a2.55,2.55,0,0,0-.81-.41,8.33,8.33,0,0,0-2.42-.52,15.37,15.37,0,0,0-3.67.2c-1.36.23-2.82.6-4.36.93a18.48,18.48,0,0,1-4.35.49,9.56,9.56,0,0,1-3.46-.75,8,8,0,0,1-2.62-1.95,2.16,2.16,0,0,0,.49.76,6.27,6.27,0,0,0,2,1.5,9.19,9.19,0,0,0,3.58.88,18.12,18.12,0,0,0,4.47-.46c1.55-.33,3-.72,4.34-1a16.3,16.3,0,0,1,3.57-.31A13.81,13.81,0,0,1,693,435.73Z" style="fill:#f5f5f5"></path><path d="M672.28,445.75a4.72,4.72,0,0,1,2.83-.28,13.76,13.76,0,0,1,3,1.1,11.2,11.2,0,0,0,3.86,1.07,11.65,11.65,0,0,0,7-1.62,10.06,10.06,0,0,0,1.75-1.34,2.92,2.92,0,0,0,.51-.62,25.14,25.14,0,0,1-2.42,1.66,12,12,0,0,1-6.79,1.44c-2.77-.16-4.89-1.81-6.81-2a4.45,4.45,0,0,0-2.21.19A1.49,1.49,0,0,0,672.28,445.75Z" style="fill:#f5f5f5"></path><path d="M673.9,459.62a5.64,5.64,0,0,0,2.44-.49c1.47-.49,3.29-1.61,5.42-2.46a9,9,0,0,1,3.1-.65,5.13,5.13,0,0,1,4.31,2.13,1.36,1.36,0,0,0-.28-.62,4.14,4.14,0,0,0-1.37-1.24,5.71,5.71,0,0,0-2.65-.71,8.71,8.71,0,0,0-3.28.65c-2.21.87-4,2-5.37,2.59S673.89,459.54,673.9,459.62Z" style="fill:#f5f5f5"></path><path d="M675.34,466.07a6.71,6.71,0,0,0,1.85.6,33.13,33.13,0,0,0,4.63.78,34.41,34.41,0,0,0,4.69.14,7,7,0,0,0,1.93-.23c0-.15-3,0-6.58-.38S675.37,465.93,675.34,466.07Z" style="fill:#f5f5f5"></path></g><g id="freepik--shopping-baskets--inject-94"><path d="M185.84,370.17H95.18a1.67,1.67,0,0,0-1.67,1.67v7a1.67,1.67,0,0,0,1.67,1.67h3.23l11.27,40.32h61.65l11.84-40.32h2.67a1.67,1.67,0,0,0,1.67-1.67v-7A1.67,1.67,0,0,0,185.84,370.17Zm-68,45.89H114.7l-3.76-14.94h6.87Zm0-20h-8.15L106.37,383h11.44Zm11.08,20.52h-5.23V401.12h5.23Zm0-20.52h-5.23V383h5.23Zm10.74,20.52h-5.22V401.12h5.22Zm0-20.52h-5.22V383h5.22Zm10.75,20.52h-5.23V401.12h5.23Zm0-20.52h-5.23V383h5.23Zm10.74,20.52H155.9V401.12h5.22Zm0-20.52H155.9V383h5.22Zm7.6,20h-3.11V401.12h6.87Zm5-20h-8.15V383h11.44Z" style="fill:#F82828"></path><path d="M186.35,380.49c0,.14-20.53.26-45.84.26s-45.84-.12-45.84-.26,20.52-.26,45.84-.26S186.35,380.35,186.35,380.49Z" style="fill:#263238"></path><g style="opacity:0.4"><path d="M185.84,370.17H95.18a1.67,1.67,0,0,0-1.67,1.67v7a1.67,1.67,0,0,0,1.67,1.67h3.23l11.27,40.32h61.65l11.84-40.32h2.67a1.67,1.67,0,0,0,1.67-1.67v-7A1.67,1.67,0,0,0,185.84,370.17Zm-68,45.89H114.7l-3.76-14.94h6.87Zm0-20h-8.15L106.37,383h11.44Zm11.08,20.52h-5.23V401.12h5.23Zm0-20.52h-5.23V383h5.23Zm10.74,20.52h-5.22V401.12h5.22Zm0-20.52h-5.22V383h5.22Zm10.75,20.52h-5.23V401.12h5.23Zm0-20.52h-5.23V383h5.23Zm10.74,20.52H155.9V401.12h5.22Zm0-20.52H155.9V383h5.22Zm7.6,20h-3.11V401.12h6.87Zm5-20h-8.15V383h11.44Z"></path></g><path d="M162.39,394.42H103.06l-3.58,3.05L111.37,440h60.54l11.9-40.54Zm-43,40.94h-3l-8.19-32.5h11.24Zm10.87.49H125.1v-33h5.13Zm10.56,0h-5.14v-33h5.14Zm10.55,0h-5.13v-33h5.13Zm10.55,0h-5.13v-33h5.13Zm7.46-.49h-3.06v-32.5h11.24Z" style="fill:#F82828"></path><rect x="106.94" y="415.69" width="69.41" height="5" style="fill:#F82828"></rect><rect x="95.5" y="390.3" width="92.3" height="10.14" rx="1.88" style="fill:#F82828"></rect><path d="M186.66,400.43c0,.15-20.15.26-45,.26s-45-.11-45-.26,20.15-.26,45-.26S186.66,400.29,186.66,400.43Z" style="fill:#263238"></path><path d="M185.84,409.27H95.18a1.67,1.67,0,0,0-1.67,1.67v7a1.67,1.67,0,0,0,1.67,1.67h3.23l11.27,40.32h61.65l11.84-40.32h2.67a1.67,1.67,0,0,0,1.67-1.67v-7A1.67,1.67,0,0,0,185.84,409.27Zm-68,45.89H114.7l-3.76-14.93h6.87Zm0-20h-8.15l-3.29-13.07h11.44Zm11.08,20.53h-5.23V440.23h5.23Zm0-20.53h-5.23V422.06h5.23Zm10.74,20.53h-5.22V440.23h5.22Zm0-20.53h-5.22V422.06h5.22Zm10.75,20.53h-5.23V440.23h5.23Zm0-20.53h-5.23V422.06h5.23Zm10.74,20.53H155.9V440.23h5.22Zm0-20.53H155.9V422.06h5.22Zm7.6,20h-3.11V440.23h6.87Zm5-20h-8.15V422.06h11.44Z" style="fill:#F82828"></path><path d="M186.35,419.59c0,.15-20.53.26-45.84.26s-45.84-.11-45.84-.26,20.52-.26,45.84-.26S186.35,419.45,186.35,419.59Z" style="fill:#263238"></path><g style="opacity:0.4"><path d="M185.84,409.27H95.18a1.67,1.67,0,0,0-1.67,1.67v7a1.67,1.67,0,0,0,1.67,1.67h3.23l11.27,40.32h61.65l11.84-40.32h2.67a1.67,1.67,0,0,0,1.67-1.67v-7A1.67,1.67,0,0,0,185.84,409.27Zm-68,45.89H114.7l-3.76-14.93h6.87Zm0-20h-8.15l-3.29-13.07h11.44Zm11.08,20.53h-5.23V440.23h5.23Zm0-20.53h-5.23V422.06h5.23Zm10.74,20.53h-5.22V440.23h5.22Zm0-20.53h-5.22V422.06h5.22Zm10.75,20.53h-5.23V440.23h5.23Zm0-20.53h-5.23V422.06h5.23Zm10.74,20.53H155.9V440.23h5.22Zm0-20.53H155.9V422.06h5.22Zm7.6,20h-3.11V440.23h6.87Zm5-20h-8.15V422.06h11.44Z"></path></g><path d="M161.25,433.65H101.92l-3.58,3,11.9,42.56h60.54l11.9-40.53Zm-43,40.94h-3L107,442.09h11.24Zm10.88.48H124v-33h5.14Zm10.55,0h-5.13v-33h5.13Zm10.55,0h-5.13v-33h5.13Zm10.55,0h-5.13v-33h5.13Zm7.46-.48h-3.05v-32.5H176.4Z" style="fill:#F82828"></path><rect x="105.8" y="454.92" width="69.41" height="5" style="fill:#F82828"></rect><rect x="94.36" y="429.52" width="92.3" height="10.14" rx="1.88" style="fill:#F82828"></rect><path d="M185.52,439.66c0,.14-20.15.26-45,.26s-45-.12-45-.26,20.15-.26,45-.26S185.52,439.52,185.52,439.66Z" style="fill:#263238"></path></g><g id="freepik--self-checkout-machine--inject-94"><rect x="237.25" y="247.5" width="117.77" height="231.55" style="fill:#455a64"></rect><rect x="117.55" y="300.34" width="119.7" height="7.88" style="fill:#263238"></rect><rect x="355.02" y="336.06" width="175.94" height="143" style="fill:#455a64"></rect><rect x="355.02" y="325.91" width="181.45" height="10.14" style="fill:#263238"></rect><rect x="369.53" y="156.52" width="39.11" height="60.27" style="fill:#263238"></rect><path d="M184.41,176.75H174a11.37,11.37,0,0,0-10.87,8l-9.91,32.49a4.8,4.8,0,0,0,3.3,6h0a4.8,4.8,0,0,0,5.84-3l9.7-27.73h12.38a7.9,7.9,0,0,0,7.9-7.9h0A7.9,7.9,0,0,0,184.41,176.75Z" style="fill:#455a64"></path><path d="M192.31,184.11a4.89,4.89,0,0,1-.65,0l-1.86.05-6.83.08-10.14.06a11.07,11.07,0,0,0-1.42,0,4.53,4.53,0,0,0-1.33.4,4.42,4.42,0,0,0-2,2,10.39,10.39,0,0,0-.52,1.43l-.5,1.52c-.34,1-.68,2-1,3.1-2.77,8.33-5.28,15.87-7.13,21.4-.92,2.68-1.67,4.87-2.21,6.46l-.63,1.75a3.73,3.73,0,0,1-.25.6,2.56,2.56,0,0,1,.15-.63l.54-1.78,2.05-6.52c1.81-5.54,4.27-13.1,7-21.45q.51-1.56,1-3.09c.17-.51.33-1,.5-1.52a10.15,10.15,0,0,1,.56-1.5,4.84,4.84,0,0,1,2.26-2.21,4.65,4.65,0,0,1,1.49-.44,10.61,10.61,0,0,1,1.48,0l10.14,0,6.83.09,1.86,0A2.84,2.84,0,0,1,192.31,184.11Z" style="fill:#263238"></path><rect x="153.41" y="195.6" width="40.76" height="5.78" style="fill:#263238"></rect><path d="M193.78,263.41s0,.22,0,.65a13,13,0,0,1-.13,1.92,10.92,10.92,0,0,1-.81,3,7,7,0,0,1-2.77,3.23,15.69,15.69,0,0,1-5.1,1.65,5.94,5.94,0,0,1-3.08-.27,5.4,5.4,0,0,1-2.7-1.95,3.79,3.79,0,0,1-.67-1.66,4,4,0,0,1,.2-1.85,4.09,4.09,0,0,1,2.85-2.48,3.87,3.87,0,0,1,3.79,1.19,5.29,5.29,0,0,1,1,4.11,8.39,8.39,0,0,1-5.78,6.6,9.14,9.14,0,0,1-9.19-2.44,6.33,6.33,0,0,1-1.41-2.22,4.83,4.83,0,0,1-.05-2.69,3.1,3.1,0,0,1,1.7-2.15,2.82,2.82,0,0,1,2.75.47,3,3,0,0,1,1.08,2.61,7.52,7.52,0,0,1-.94,2.68,9.21,9.21,0,0,1-4.23,3.78,8.54,8.54,0,0,1-5.79.54,8,8,0,0,1-4.73-3.6,6.12,6.12,0,0,1-.81-3,5.49,5.49,0,0,1,1-3,6.93,6.93,0,0,1,2.31-2.13,3.11,3.11,0,0,1,1.58-.5,2.35,2.35,0,0,1,1.57.62,2.15,2.15,0,0,1,.73,1.55,2.31,2.31,0,0,1-.67,1.56,8.62,8.62,0,0,1-2.46,2.07,8.93,8.93,0,0,1-6.31,1.06,6.64,6.64,0,0,1-4.82-4.24,7.94,7.94,0,0,1,.48-6.53,6.87,6.87,0,0,1,2.32-2.44,4.73,4.73,0,0,1,3.26-.85,2.81,2.81,0,0,1,2.32,2.39,3.18,3.18,0,0,1-1.48,3,4.69,4.69,0,0,1-3.23.66,6.24,6.24,0,0,1-3-1.28,12.42,12.42,0,0,1-3.39-5.33,13.43,13.43,0,0,1-1.16-6.09,6.78,6.78,0,0,1,3.1-5.18,5,5,0,0,1,3-.8,4.87,4.87,0,0,1,2.81,1.16,3.62,3.62,0,0,1,1.4,2.67,3.25,3.25,0,0,1-1.42,2.61,4.79,4.79,0,0,1-5.55-.13,6.2,6.2,0,0,1-2.47-4.9,12.21,12.21,0,0,1,1.11-5.26,8,8,0,0,1,3.38-3.95,4.3,4.3,0,0,1,2.53-.55,4.73,4.73,0,0,1,2.37,1,3.38,3.38,0,0,1,1.32,2.14,2.62,2.62,0,0,1-1.05,2.24,4.1,4.1,0,0,1-4.56.09,7.2,7.2,0,0,1-3-3.25,8.22,8.22,0,0,1,.72-8,7.74,7.74,0,0,1,2.87-2.51,6,6,0,0,1,3.56-.4,3.49,3.49,0,0,1,1.57.73,2.28,2.28,0,0,1,.78,1.49,2.61,2.61,0,0,1-1.59,2.56,3.69,3.69,0,0,1-2.82.1,4.29,4.29,0,0,1-2-1.57,5.79,5.79,0,0,1-1-4.11,7.69,7.69,0,0,1,.94-3,7.15,7.15,0,0,1,1.18-1.52c.33-.29.51-.42.51-.42a7.89,7.89,0,0,0-1.6,2,7.58,7.58,0,0,0-.87,2.95,5.66,5.66,0,0,0,1,4,4.11,4.11,0,0,0,2,1.48,3.51,3.51,0,0,0,2.64-.11,2.35,2.35,0,0,0,1.42-2.31,2,2,0,0,0-.69-1.31,3.17,3.17,0,0,0-1.45-.66,5.73,5.73,0,0,0-3.37.4,7.45,7.45,0,0,0-2.72,2.41,7.89,7.89,0,0,0-.67,7.64,6.75,6.75,0,0,0,2.89,3.07,3.68,3.68,0,0,0,4.12-.07,2.2,2.2,0,0,0,.9-1.87,3,3,0,0,0-1.18-1.86,4.33,4.33,0,0,0-2.15-.87,4,4,0,0,0-2.29.51,7.62,7.62,0,0,0-3.17,3.75,11.85,11.85,0,0,0-1.06,5.06,5.71,5.71,0,0,0,2.29,4.54,4.35,4.35,0,0,0,5,.13,2.78,2.78,0,0,0,1.21-2.23,3.12,3.12,0,0,0-1.22-2.3,4.37,4.37,0,0,0-2.53-1,4.51,4.51,0,0,0-2.67.72,6.29,6.29,0,0,0-2.86,4.8,13.14,13.14,0,0,0,1.13,5.87,11.79,11.79,0,0,0,3.24,5.1,5.57,5.57,0,0,0,2.75,1.18,4.17,4.17,0,0,0,2.88-.58,2.65,2.65,0,0,0,1.25-2.48,2.29,2.29,0,0,0-1.89-2,4.16,4.16,0,0,0-2.89.78,6.32,6.32,0,0,0-2.14,2.25,7.41,7.41,0,0,0-.46,6.1,6.11,6.11,0,0,0,4.46,3.91,8.35,8.35,0,0,0,5.94-1,8,8,0,0,0,2.31-1.94,1.86,1.86,0,0,0,.56-1.24,1.6,1.6,0,0,0-.56-1.17,1.82,1.82,0,0,0-1.24-.49,2.55,2.55,0,0,0-1.31.43,6.46,6.46,0,0,0-2.15,2,4.93,4.93,0,0,0-.87,2.71,5.47,5.47,0,0,0,.73,2.73,7.54,7.54,0,0,0,4.43,3.38,8.09,8.09,0,0,0,5.46-.51,8.82,8.82,0,0,0,4-3.57,7.42,7.42,0,0,0,.88-2.49,2.56,2.56,0,0,0-.91-2.22,2.42,2.42,0,0,0-2.29-.41,2.7,2.7,0,0,0-1.44,1.86,4.27,4.27,0,0,0,0,2.43,6.08,6.08,0,0,0,1.3,2.07,8.73,8.73,0,0,0,8.76,2.34,8,8,0,0,0,5.53-6.26,4.92,4.92,0,0,0-.92-3.83,3.49,3.49,0,0,0-3.45-1.09,3.74,3.74,0,0,0-2.63,2.26,3.52,3.52,0,0,0,.41,3.24,5.28,5.28,0,0,0,2.56,1.86,5.75,5.75,0,0,0,2.94.27,15.72,15.72,0,0,0,5-1.57A6.93,6.93,0,0,0,192.7,269a11.16,11.16,0,0,0,.85-3,16.62,16.62,0,0,0,.18-1.91C193.76,263.63,193.78,263.41,193.78,263.41Z" style="fill:#263238"></path><path d="M168.35,308.28c.79-.06,68.9,56.87,68.9,56.87V308.22Z" style="fill:#455a64"></path><rect x="365.05" y="357.84" width="155.71" height="49.34" style="fill:#263238"></rect><path d="M355.39,478.84c-.14,0-.26-32.35-.26-72.24s.12-72.25.26-72.25.26,32.34.26,72.25S355.54,478.84,355.39,478.84Z" style="fill:#263238"></path><rect x="374.66" y="382.51" width="73.65" height="24.08" style="fill:#e0e0e0"></rect><rect x="376.08" y="156.52" width="32.56" height="60.27" style="fill:#455a64"></rect><rect x="375.11" y="184.28" width="38.84" height="4.1" style="fill:#263238"></rect><rect x="380.51" y="161.65" width="23.03" height="18.64" rx="0.83" style="fill:#263238"></rect><rect x="379.08" y="190.44" width="5.77" height="5.77" style="fill:#e0e0e0"></rect><rect x="386.01" y="190.44" width="5.77" height="5.77" style="fill:#e0e0e0"></rect><rect x="392.93" y="190.44" width="5.77" height="5.77" style="fill:#e0e0e0"></rect><rect x="399.86" y="190.44" width="5.77" height="5.77" style="fill:#e0e0e0"></rect><rect x="379.08" y="197.87" width="5.77" height="5.77" style="fill:#e0e0e0"></rect><rect x="386.01" y="197.87" width="5.77" height="5.77" style="fill:#e0e0e0"></rect><rect x="392.93" y="197.87" width="5.77" height="5.77" style="fill:#e0e0e0"></rect><rect x="399.86" y="197.87" width="5.77" height="5.77" style="fill:#e0e0e0"></rect><rect x="379.08" y="205.02" width="5.77" height="5.77" style="fill:#e0e0e0"></rect><rect x="386.01" y="205.02" width="5.77" height="5.77" style="fill:#e0e0e0"></rect><rect x="392.93" y="205.02" width="5.77" height="5.77" style="fill:#e0e0e0"></rect><rect x="399.86" y="205.02" width="5.77" height="5.77" style="fill:#F82828"></rect><path d="M405.65,210.82h-5.82V205h5.82Zm-5.77,0h5.72v-5.72h-5.72Z" style="fill:#263238"></path><path d="M385,215.15a1.57,1.57,0,0,1,.14.25l.36.74a17.41,17.41,0,0,1,.93,3,17,17,0,0,1-1.77,11.4,16.39,16.39,0,0,1-5.56,5.84,17.47,17.47,0,0,1-8.84,2.73,17.6,17.6,0,0,1-13.81-6.6,14.86,14.86,0,0,1-2.69-5,7.47,7.47,0,0,1,.33-5.61,5.79,5.79,0,0,1,1.86-2.13,4.39,4.39,0,0,1,2.69-.75,5.09,5.09,0,0,1,3.8,8,6,6,0,0,1-4,2.72,10.14,10.14,0,0,1-4.54-.25,20.43,20.43,0,0,1-7.29-3.49,12.66,12.66,0,0,1-4.08-5.26,10.64,10.64,0,0,1-.69-5,8.36,8.36,0,0,1,.95-3,4.26,4.26,0,0,1,.62-.92s-.21.32-.53,1a8.83,8.83,0,0,0-.83,3,10.52,10.52,0,0,0,.75,4.86,12.21,12.21,0,0,0,4,5.06,20.18,20.18,0,0,0,7.17,3.37,9.75,9.75,0,0,0,4.34.22,5.55,5.55,0,0,0,3.65-2.53,4.77,4.77,0,0,0,.43-4.54,4.69,4.69,0,0,0-3.86-2.7,3.92,3.92,0,0,0-2.38.67,5.27,5.27,0,0,0-1.68,1.94,7,7,0,0,0-.29,5.22,14.69,14.69,0,0,0,2.59,4.78,17,17,0,0,0,3.91,3.58,16.73,16.73,0,0,0,9.49,2.86,17.11,17.11,0,0,0,8.62-2.61,16.17,16.17,0,0,0,5.47-5.66,16.44,16.44,0,0,0,2-6.22,16.9,16.9,0,0,0-.13-5,18.35,18.35,0,0,0-.83-3l-.31-.76A.84.84,0,0,1,385,215.15Z" style="fill:#263238"></path><rect x="297.84" y="263.45" width="45.19" height="25.13" style="fill:#263238"></rect><path d="M307.19,273.41a8.55,8.55,0,0,0-3.77,4.45,15.43,15.43,0,0,0-.43,4.75c.16,9,.65,26.79.65,26.79l3.55-3.54,3.62,3.34,2.92-3,4.38,3.19,3.06-3.26,3.9,3.26,3.48-2.84,5.22,2.15-.42-4.31s-1.18-20.68-1.26-25.21a7.28,7.28,0,0,1,2.59-6.09Z" style="fill:#ebebeb"></path><path d="M307.19,273.41a3.83,3.83,0,0,1,.49,0l1.44,0,5.52-.12,20-.32h.61l-.49.39a6.58,6.58,0,0,0-2.09,3.12,10.17,10.17,0,0,0-.33,4c.15,2.82.3,5.77.46,8.82s.31,6.22.48,9.47c.08,1.62.17,3.27.25,4.94s.31,3.34.46,5l0,.43-.39-.17-5.22-2.15.26,0-.61.5-2.86,2.34-.17.14-.17-.14L321,306.34l.35,0-3.07,3.26-.15.16-.18-.13-4.38-3.2.33,0-2.93,3-.17.17-.17-.16L307,306h.34l-3.56,3.53-.38.38v-.53c-.23-11.19-.43-20.57-.56-27.18a14.55,14.55,0,0,1,.46-4.4,8.51,8.51,0,0,1,1.73-2.78,7.65,7.65,0,0,1,1.52-1.34,2.74,2.74,0,0,1,.63-.3s-.21.11-.59.36a8.59,8.59,0,0,0-1.46,1.38,8.48,8.48,0,0,0-1.63,2.74,14.47,14.47,0,0,0-.39,4.33c.18,6.62.44,16,.75,27.18l-.39-.16,3.54-3.55.16-.16.17.15L311,309h-.34l2.92-3,.15-.15.18.13,4.38,3.18-.34,0L321,306l.16-.18.19.16,3.9,3.26h-.33l2.86-2.35.62-.5.12-.09.14.06,5.22,2.15-.36.27c-.15-1.71-.36-3.39-.45-5.06s-.16-3.31-.24-4.94c-.16-3.25-.32-6.42-.47-9.48s-.29-6-.42-8.83a10.27,10.27,0,0,1,.37-4.17,7,7,0,0,1,2.26-3.33l.12.38-20,.13h-5.54l-1.45,0A2.73,2.73,0,0,1,307.19,273.41Z" style="fill:#263238"></path><path d="M328.22,288.59a71.45,71.45,0,0,1-12.18,0,71.45,71.45,0,0,1,12.18,0Z" style="fill:#263238"></path><path d="M328.22,292.93c0,.15-4.92.26-11,.26s-11-.11-11-.26,4.92-.26,11-.26S328.22,292.79,328.22,292.93Z" style="fill:#263238"></path><path d="M328.22,297.28c0,.14-4.92.26-11,.26s-11-.12-11-.26,4.92-.26,11-.26S328.22,297.14,328.22,297.28Z" style="fill:#263238"></path><path d="M312,288.73a11.11,11.11,0,0,1-4.78,0,11.11,11.11,0,0,1,4.78,0Z" style="fill:#263238"></path><path d="M328.22,284.81a68.82,68.82,0,0,1-12.18,0,71.45,71.45,0,0,1,12.18,0Z" style="fill:#263238"></path><path d="M312,285a11.11,11.11,0,0,1-4.78,0,11.11,11.11,0,0,1,4.78,0Z" style="fill:#263238"></path><path d="M328.22,281A71.45,71.45,0,0,1,316,281a71.45,71.45,0,0,1,12.18,0Z" style="fill:#263238"></path><path d="M312,281.19a11.11,11.11,0,0,1-4.78,0,11.11,11.11,0,0,1,4.78,0Z" style="fill:#263238"></path><path d="M340.19,273.41c0,.14-8.51.26-19,.26s-19-.12-19-.26,8.51-.26,19-.26S340.19,273.27,340.19,273.41Z" style="fill:#455a64"></path><path d="M237.39,375.56c-.15,0-.26-16.84-.26-37.6s.11-37.61.26-37.61.26,16.83.26,37.61S237.53,375.56,237.39,375.56Z" style="fill:#263238"></path><rect x="239.68" y="127.59" width="112.92" height="86.75" style="fill:#263238"></rect><rect x="245.17" y="133.09" width="101.71" height="75.77" style="fill:#fafafa"></rect><path d="M347.38,209.35H244.67V132.59H347.38Zm-101.71-1H346.38V133.59H245.67Z" style="fill:#263238"></path><path d="M258.28,189.92H257v-.48h3.21v.48h-1.33v3.41h-.55Z" style="fill:#263238"></path><path d="M260.39,191.38a2.07,2.07,0,1,1,2.08,2A2,2,0,0,1,260.39,191.38Zm3.58,0a1.51,1.51,0,1,0-1.5,1.5A1.45,1.45,0,0,0,264,191.38Z" style="fill:#263238"></path><path d="M266.09,189.92h-1.33v-.48H268v.48h-1.34v3.41h-.55Z" style="fill:#263238"></path><path d="M270.86,192.36H268.8l-.43,1h-.57l1.76-3.89h.55l1.76,3.89h-.58Zm-.19-.45-.84-1.9-.84,1.9Z" style="fill:#263238"></path><path d="M272.45,189.44H273v3.41h2.1v.48h-2.66Z" style="fill:#263238"></path><path d="M320.94,149.44h-1.33V149h3.21v.48h-1.33v3.41h-.55Z" style="fill:#263238"></path><path d="M323.05,150.9a2.07,2.07,0,1,1,2.07,2A2,2,0,0,1,323.05,150.9Zm3.58,0a1.51,1.51,0,1,0-1.51,1.5A1.46,1.46,0,0,0,326.63,150.9Z" style="fill:#263238"></path><path d="M328.75,149.44h-1.33V149h3.22v.48H329.3v3.41h-.55Z" style="fill:#263238"></path><path d="M333.52,151.87h-2.06l-.43,1h-.57l1.76-3.89h.55l1.76,3.89H334Zm-.19-.44-.84-1.91-.84,1.91Z" style="fill:#263238"></path><path d="M335.11,149h.56v3.4h2.1v.49h-2.66Z" style="fill:#263238"></path><path d="M297.45,150.46c0,.15-9.4.26-21,.26s-21-.11-21-.26,9.39-.26,21-.26S297.45,150.32,297.45,150.46Z" style="fill:#263238"></path><path d="M270.93,156a47.89,47.89,0,0,1-7,.26,48.09,48.09,0,0,1-7-.26,45.62,45.62,0,0,1,7-.27A45.43,45.43,0,0,1,270.93,156Z" style="fill:#263238"></path><path d="M270.93,162.8a47.89,47.89,0,0,1-7,.26,48.09,48.09,0,0,1-7-.26,46.46,46.46,0,0,1,7-.26A46.27,46.27,0,0,1,270.93,162.8Z" style="fill:#263238"></path><path d="M270.93,168.43a46.27,46.27,0,0,1-7,.26,46.46,46.46,0,0,1-7-.26,48.09,48.09,0,0,1,7-.26A47.89,47.89,0,0,1,270.93,168.43Z" style="fill:#263238"></path><path d="M270.93,175.29a47.89,47.89,0,0,1-7,.26,48.09,48.09,0,0,1-7-.26,46.46,46.46,0,0,1,7-.26A46.27,46.27,0,0,1,270.93,175.29Z" style="fill:#263238"></path><path d="M298.35,155.64a33.89,33.89,0,0,1-8.38,0,33.89,33.89,0,0,1,8.38,0Z" style="fill:#263238"></path><path d="M298.35,163.1a33.89,33.89,0,0,1-8.38,0,33.89,33.89,0,0,1,8.38,0Z" style="fill:#263238"></path><path d="M298.35,168.28a33.89,33.89,0,0,1-8.38,0,33.89,33.89,0,0,1,8.38,0Z" style="fill:#263238"></path><path d="M297.84,175.29a33.81,33.81,0,0,1-8.37,0,33.81,33.81,0,0,1,8.37,0Z" style="fill:#263238"></path><path d="M284.45,189.25v3.85h-.71v-3.25h-.81v-.6Z" style="fill:#263238"></path><path d="M285.22,191.18c0-1.27.69-2,1.6-2s1.61.71,1.61,2-.69,2-1.61,2S285.22,192.44,285.22,191.18Zm2.49,0c0-.93-.36-1.36-.89-1.36s-.88.43-.88,1.36.36,1.35.88,1.35S287.71,192.1,287.71,191.18Z" style="fill:#263238"></path><path d="M288.82,192.68a.46.46,0,0,1,.91,0,.46.46,0,1,1-.91,0Z" style="fill:#263238"></path><path d="M290.12,191.18c0-1.27.69-2,1.6-2s1.61.71,1.61,2-.69,2-1.61,2S290.12,192.44,290.12,191.18Zm2.49,0c0-.93-.36-1.36-.89-1.36s-.88.43-.88,1.36.36,1.35.88,1.35S292.61,192.1,292.61,191.18Z" style="fill:#263238"></path><path d="M296.61,191.92c0,.67-.49,1.23-1.52,1.23a2.45,2.45,0,0,1-1.45-.44l.31-.56a1.75,1.75,0,0,0,1.13.38c.51,0,.81-.22.81-.58s-.23-.6-1-.6h-.93l.2-2.1h2.26v.6h-1.66l-.08.89H295C296.16,190.74,296.61,191.24,296.61,191.92Z" style="fill:#263238"></path><path d="M300.61,192.07l.46.44a1.92,1.92,0,0,1-1.52.64,2,2,0,0,1-2-1.4H297v-.39h.55a1.09,1.09,0,0,1,0-.18,1.15,1.15,0,0,1,0-.19H297v-.39h.62a2,2,0,0,1,2-1.4,1.92,1.92,0,0,1,1.52.64l-.46.44a1.31,1.31,0,0,0-1-.45,1.34,1.34,0,0,0-1.27.77h1.58V191h-1.68a1.15,1.15,0,0,0,0,.19,1.09,1.09,0,0,0,0,.18h1.68v.39h-1.58a1.4,1.4,0,0,0,2.29.32Z" style="fill:#263238"></path><path d="M319.92,161.41v3.85h-.71V162h-.81v-.6Z" style="fill:#263238"></path><path d="M320.69,163.34c0-1.27.69-2,1.6-2s1.61.71,1.61,2-.69,2-1.61,2S320.69,164.6,320.69,163.34Zm2.49,0c0-.93-.36-1.36-.89-1.36s-.88.43-.88,1.36.36,1.35.88,1.35S323.18,164.26,323.18,163.34Z" style="fill:#263238"></path><path d="M324.29,164.84a.45.45,0,0,1,.45-.46.44.44,0,0,1,.45.46.45.45,0,0,1-.45.46A.46.46,0,0,1,324.29,164.84Z" style="fill:#263238"></path><path d="M325.59,163.34c0-1.27.69-2,1.6-2s1.61.71,1.61,2-.69,2-1.61,2S325.59,164.6,325.59,163.34Zm2.49,0c0-.93-.36-1.36-.89-1.36s-.88.43-.88,1.36.36,1.35.88,1.35S328.08,164.26,328.08,163.34Z" style="fill:#263238"></path><path d="M332.08,164.08c0,.67-.49,1.23-1.52,1.23a2.45,2.45,0,0,1-1.45-.44l.31-.56a1.81,1.81,0,0,0,1.13.38c.51,0,.81-.22.81-.59s-.23-.59-1-.59h-.93l.2-2.1h2.26v.6H330.2l-.08.89h.37C331.62,162.9,332.08,163.4,332.08,164.08Z" style="fill:#263238"></path><path d="M336.08,164.23l.46.44a1.92,1.92,0,0,1-1.52.64,2,2,0,0,1-2-1.4h-.63v-.39H333a1.09,1.09,0,0,1,0-.18,1.15,1.15,0,0,1,0-.19h-.56v-.39H333a2,2,0,0,1,2-1.4,1.92,1.92,0,0,1,1.52.64l-.46.43a1.41,1.41,0,0,0-2.29.33h1.58v.39h-1.68a1.15,1.15,0,0,0,0,.19,1.09,1.09,0,0,0,0,.18h1.68v.39h-1.58a1.35,1.35,0,0,0,1.27.78A1.32,1.32,0,0,0,336.08,164.23Z" style="fill:#263238"></path><path d="M308.06,208.85c-.15,0-.26-16.79-.26-37.51s.11-37.52.26-37.52.26,16.8.26,37.52S308.2,208.85,308.06,208.85Z" style="fill:#263238"></path><rect x="255.48" y="139.48" width="41.97" height="4.64" style="fill:#F82828"></rect><path d="M297.47,144.15h-42v-4.7h42Zm-42-.05h41.91v-4.6H255.51Z" style="fill:#263238"></path><path d="M333.73,195.6H319.82a4,4,0,0,1-4-4h0a4,4,0,0,1,4-4h13.91a4,4,0,0,1,4,4h0A4,4,0,0,1,333.73,195.6Z" style="fill:#F82828"></path><path d="M333.73,195.62H319.82a4,4,0,0,1,0-8h13.91a4,4,0,1,1,0,8Zm-13.91-8a4,4,0,0,0,0,7.93h13.91a4,4,0,1,0,0-7.93Z" style="fill:#263238"></path><path d="M338.73,176.44c0,.14-5.35.26-12,.26s-12-.12-12-.26,5.35-.26,12-.26S338.73,176.29,338.73,176.44Z" style="fill:#263238"></path><rect x="284.7" y="213.32" width="22.87" height="34.69" style="fill:#263238"></rect><path d="M224.72,265.52a.12.12,0,0,0,0,.05v34.18c0,1.5-1.21,3.05-3.43,4.22a20.62,20.62,0,0,1-9.49,2h-.05c-8.09,0-12.92-3.19-12.92-6.2V265.57a.12.12,0,0,0,0-.05.56.56,0,0,1,0-.07c0-3.34,2.47-6.83,4.94-10.27,1.66-2.3,2.06-5.62,2.14-7.56,0-.24,0-.44,0-.63h-.23a1.81,1.81,0,0,1-1.93-1.66v-1.44a1.81,1.81,0,0,1,1.93-1.67h12.15a2,2,0,0,1,1.78,1,1.63,1.63,0,0,1,.15.66v1.44a1.81,1.81,0,0,1-1.93,1.66h-.23c0,.19,0,.39,0,.63.08,1.94.47,5.26,2.14,7.56,2.47,3.44,4.92,6.93,4.94,10.27A.56.56,0,0,1,224.72,265.52Z" style="fill:#fafafa"></path><path d="M224.72,265.52s0-.11,0-.35a10.1,10.1,0,0,0-.12-1,13.31,13.31,0,0,0-1.42-3.71,51.93,51.93,0,0,0-3.49-5.3,10.86,10.86,0,0,1-1.59-3.68,20.33,20.33,0,0,1-.55-4.47v-.11h.1a2.28,2.28,0,0,0,1.29-.3,1.53,1.53,0,0,0,.74-1.07c0-.46,0-1,0-1.47a1.45,1.45,0,0,0-.53-1.26,2,2,0,0,0-1.37-.45H205.89a2,2,0,0,0-1.57.57,1.39,1.39,0,0,0-.38.74,8.87,8.87,0,0,0,0,.91c0,.3,0,.64,0,.92a1.45,1.45,0,0,0,.36.77,2,2,0,0,0,1.65.59h.14V247a21,21,0,0,1-.45,4.14,11.51,11.51,0,0,1-1.62,4c-.84,1.19-1.7,2.37-2.49,3.62a19.38,19.38,0,0,0-2,4,9.22,9.22,0,0,0-.49,2.2c0,.75,0,1.54,0,2.31v31.2a9.9,9.9,0,0,0,.09,2,3.89,3.89,0,0,0,.93,1.67,9,9,0,0,0,3.19,2.17,17.45,17.45,0,0,0,3.68,1.1,25,25,0,0,0,3.74.42,25.51,25.51,0,0,0,7.19-.65,15.91,15.91,0,0,0,3.25-1.18,8.18,8.18,0,0,0,2.64-2,4,4,0,0,0,.78-1.38,5.44,5.44,0,0,0,.13-1.57v-3.15c0-2.06,0-4,0-5.92,0-7.54,0-13.64,0-17.87s.05-6.55.05-6.55a2.43,2.43,0,0,1,0,.43c0,.3,0,.72,0,1.27,0,1.12,0,2.75,0,4.85,0,4.23,0,10.33.05,17.87,0,1.89,0,3.86,0,5.92v4a3.34,3.34,0,0,1-.13.83,4.49,4.49,0,0,1-.82,1.48,8.49,8.49,0,0,1-2.72,2.05,16.27,16.27,0,0,1-3.3,1.21,26.11,26.11,0,0,1-7.28.68,24.45,24.45,0,0,1-3.78-.43,17.33,17.33,0,0,1-3.73-1.11,9.44,9.44,0,0,1-3.3-2.24,4.11,4.11,0,0,1-1-1.8,9.52,9.52,0,0,1-.1-2.05c0-5.43,0-11.05,0-16.81V272c0-1.59,0-3.16,0-4.72,0-.78,0-1.54,0-2.33a9.77,9.77,0,0,1,.5-2.28,20,20,0,0,1,2-4.05c.8-1.26,1.67-2.45,2.5-3.63a11.12,11.12,0,0,0,1.58-3.88,20.41,20.41,0,0,0,.46-4.08l.14.14a2.3,2.3,0,0,1-1.85-.69,1.64,1.64,0,0,1-.43-.92c0-.34,0-.63,0-1a7.81,7.81,0,0,1,0-1,1.74,1.74,0,0,1,.46-.88,2.3,2.3,0,0,1,1.76-.64h11.89a2.18,2.18,0,0,1,1.51.51,1.67,1.67,0,0,1,.6,1.43c0,.51,0,1,0,1.5a1.77,1.77,0,0,1-.85,1.22,2.49,2.49,0,0,1-1.4.32l.1-.1a14.8,14.8,0,0,0,2.07,8.06,51.1,51.1,0,0,1,3.46,5.34,12.73,12.73,0,0,1,1.37,3.75,7.19,7.19,0,0,1,.1,1A1.13,1.13,0,0,1,224.72,265.52Z" style="fill:#263238"></path><path d="M217,246.9a45.56,45.56,0,0,1-5.41.16,45.42,45.42,0,0,1-5.41-.16,49.73,49.73,0,0,1,5.41-.15A49.88,49.88,0,0,1,217,246.9Z" style="fill:#263238"></path><path d="M223.64,270.09a3.87,3.87,0,0,0-3.71.16,14.26,14.26,0,0,1-3.55,1.54,6.81,6.81,0,0,1-4.34-1.12,27.16,27.16,0,0,0-4-2.19,7.83,7.83,0,0,0-8.08,1.9v29.35s1.61,5,13,4.22,10.46-5.79,10.46-5.79Z" style="fill:#F82828"></path><path d="M513.16,318.17c-6.1-8.53-19.07-14.37-29.61-12.8-8.55,1.27-16.1,5.24-20.24,13.72a3.87,3.87,0,0,0,3,5.56,176,176,0,0,0,42.84-.15c2.19-.28,4.79-.88,5-3.59A4.35,4.35,0,0,0,513.16,318.17Z" style="fill:#F82828"></path><path d="M479.42,317.75c-.05,0-.48-.39-1.07-1.2a9.82,9.82,0,0,1-1.62-3.54,17.26,17.26,0,0,1-.31-3.86,4.53,4.53,0,0,1,.13-1.59,5.16,5.16,0,0,1,.23,1.58,31.09,31.09,0,0,0,.46,3.76,11.83,11.83,0,0,0,1.42,3.45C479.15,317.19,479.49,317.7,479.42,317.75Z" style="fill:#f5f5f5"></path><path d="M488.48,317.33c-.16,0,.07-2.43-.25-5.37s-1-5.25-.87-5.29a17.62,17.62,0,0,1,1.12,10.66Z" style="fill:#f5f5f5"></path><path d="M497.83,316c-.14-.06.56-1.68.73-3.8s-.22-3.83-.06-3.87a6.79,6.79,0,0,1,.58,3.92A6.68,6.68,0,0,1,497.83,316Z" style="fill:#f5f5f5"></path><g style="opacity:0.30000000000000004"><path d="M486.81,305.78a.71.71,0,0,1,.08.15h0Z"></path></g><g style="opacity:0.6000000000000001"><path d="M513.16,318.17c-6.1-8.53-19.07-14.37-29.61-12.8-8.55,1.27-16.1,5.24-20.24,13.72a3.87,3.87,0,0,0,3,5.56,176,176,0,0,0,42.84-.15c2.19-.28,4.79-.88,5-3.59A4.35,4.35,0,0,0,513.16,318.17Z" style="fill:#fff"></path></g><path d="M391.2,305.72a7.13,7.13,0,0,0-6.54-7.73.7.7,0,0,0-.51.09.74.74,0,0,0-.14.7,8.62,8.62,0,0,0,7.2,7.14" style="fill:#455a64"></path><path d="M382.1,319.51c2,3.59,4.79,5.91,8,5.81.64,0,1.1-.47,1.71-.54a4,4,0,0,1,1.05.31,1.53,1.53,0,0,0,.54.09c3.29-.4,5.95-2.91,7.59-6.92,2.27-5.62,1.07-11.41-2.69-12.94a8.69,8.69,0,0,0-1.53-.49,6.55,6.55,0,0,0-1.83-.09,13.82,13.82,0,0,0-4.08,1.21l-.17.08c-3.05-1.11-5.42-1-7.64.3C379.52,308.35,379.1,314.25,382.1,319.51Z" style="fill:#F82828"></path><path d="M381.8,314a2.82,2.82,0,0,1-.38-1.07,5.89,5.89,0,0,1,1.51-5.13,2.76,2.76,0,0,1,.91-.7s-.32.3-.77.82a6.62,6.62,0,0,0-1.25,2.34,6.47,6.47,0,0,0-.22,2.64C381.69,313.58,381.84,314,381.8,314Z" style="fill:#fafafa"></path><path d="M382.64,316.54c-.07,0-.21-.23-.31-.55s-.12-.61-.05-.63.21.22.31.55S382.71,316.52,382.64,316.54Z" style="fill:#fafafa"></path><path d="M398.14,296.31c0,.05-.66.36-1.65,1a14.06,14.06,0,0,0-1.62,1.33,13.61,13.61,0,0,0-3,4.17,13.24,13.24,0,0,0-.73,2c-.32,1.15-.39,1.9-.44,1.89a1.66,1.66,0,0,1,0-.53c0-.17,0-.37.09-.61a7.53,7.53,0,0,1,.16-.8,12.43,12.43,0,0,1,.69-2,12.59,12.59,0,0,1,3-4.24,11.45,11.45,0,0,1,1.69-1.31,7.18,7.18,0,0,1,.7-.42,5.81,5.81,0,0,1,.56-.28A2.28,2.28,0,0,1,398.14,296.31Z" style="fill:#263238"></path><path d="M368,298v-8.46a1,1,0,0,1,1-1h.38a1,1,0,0,1,1,1v.4h6.28v2.14h-6.2V298Z" style="fill:#263238"></path><rect x="360.94" y="299.72" width="16.61" height="26.86" rx="2.29" style="fill:#455a64"></rect><path d="M366.4,296.31h6.06a1.05,1.05,0,0,1,1.05,1.05v2.35a0,0,0,0,1,0,0h-8.17a0,0,0,0,1,0,0v-2.35A1.05,1.05,0,0,1,366.4,296.31Z" style="fill:#455a64"></path><rect x="370.35" y="303.9" width="7.2" height="17.77" style="fill:#fafafa"></rect><path d="M373.52,299.63a33.89,33.89,0,0,1-8.38,0,32.65,32.65,0,0,1,8.38,0Z" style="fill:#263238"></path><path d="M362,317.38a59.76,59.76,0,0,1-.26-7.82,59.85,59.85,0,0,1,.26-7.83,59.85,59.85,0,0,1,.26,7.83A59.76,59.76,0,0,1,362,317.38Z" style="fill:#fafafa"></path></g><g id="freepik--Floor--inject-94"><path d="M680.39,479.05c0,.15-143.51.26-320.5.26s-320.53-.11-320.53-.26,143.48-.26,320.53-.26S680.39,478.91,680.39,479.05Z" style="fill:#263238"></path></g><g id="freepik--character-2--inject-94"><path d="M602.61,226.72l-1.25-4.22A11.46,11.46,0,0,0,602.61,226.72Z" style="fill:#455a64"></path><path d="M657.36,276.77c-5-9.44-14.71-15.21-23.36-21.48-7.57-5.48-26.34-18.3-31.39-28.57l27.17,91.77a28.49,28.49,0,0,0,27.58-41.72Z" style="fill:#455a64"></path><path d="M572,448l-.17,31-38.64,0c.23-3.69,20.22-11.09,20.22-11.09l-.7-19.9Z" style="fill:#F82828"></path><g style="opacity:0.6000000000000001"><path d="M565.38,466.31a1.58,1.58,0,0,1,1.09,1.8,1.53,1.53,0,0,1-1.78,1.1,1.66,1.66,0,0,1-1.14-1.91,1.58,1.58,0,0,1,2-.94" style="fill:#fff"></path></g><g style="opacity:0.6000000000000001"><path d="M571.85,479.09l-.11-3.13-37,1.15s-1.72.75-1.53,2Z" style="fill:#fff"></path></g><path d="M552.8,467.78c0,.19,1,.28,1.88.89s1.42,1.4,1.6,1.32-.11-1.16-1.25-1.88S552.76,467.61,552.8,467.78Z" style="fill:#263238"></path><path d="M548.75,469.46c0,.18.78.5,1.42,1.3s.82,1.64,1,1.63.31-1.07-.51-2.05S548.76,469.28,548.75,469.46Z" style="fill:#263238"></path><path d="M546.45,474.31c.17,0,.43-.91-.05-1.94s-1.37-1.44-1.45-1.29.47.71.85,1.57S546.26,474.29,546.45,474.31Z" style="fill:#263238"></path><path d="M553.15,463.23c.08.17.94-.09,2,0s1.9.41,2,.24-.7-.83-1.95-.9S553.05,463.08,553.15,463.23Z" style="fill:#263238"></path><path d="M554.07,458.65a3.64,3.64,0,0,0,1.93,0,8.7,8.7,0,0,0,2-.62,8.53,8.53,0,0,0,1.11-.59,2.43,2.43,0,0,0,.59-.45.85.85,0,0,0,.08-1,1,1,0,0,0-.82-.43,2.57,2.57,0,0,0-.73.1,6.84,6.84,0,0,0-3,1.58c-.89.83-1.2,1.54-1.14,1.57s.53-.53,1.44-1.21a7.64,7.64,0,0,1,1.72-1,6.36,6.36,0,0,1,1.12-.34c.4-.11.75-.11.86.07s0,.1,0,.22a2,2,0,0,1-.42.33c-.35.22-.69.41-1,.58a11.56,11.56,0,0,1-1.87.72A12.87,12.87,0,0,0,554.07,458.65Z" style="fill:#263238"></path><path d="M554.32,458.92a3.16,3.16,0,0,0,.51-1.87,6.2,6.2,0,0,0-.27-2.12,5.83,5.83,0,0,0-.49-1.17,1.58,1.58,0,0,0-1.23-1,.9.9,0,0,0-.81.54,2.64,2.64,0,0,0-.2.71,4.36,4.36,0,0,0,0,1.3,4.53,4.53,0,0,0,.82,2c.76,1,1.55,1.23,1.56,1.16s-.59-.46-1.17-1.42a4.44,4.44,0,0,1-.61-1.82,4.16,4.16,0,0,1,0-1.11c.07-.41.22-.75.37-.7s.52.3.68.63a6.12,6.12,0,0,1,.48,1.05,6.79,6.79,0,0,1,.37,1.93C554.41,458.18,554.21,458.89,554.32,458.92Z" style="fill:#263238"></path><path d="M549.44,236s-7.06,31-10.86,32.76-34.24,4.5-34.24,4.5l-16.9-6.14,36.29-12,8.62-29.55Z" style="fill:#b78876"></path><path d="M478.54,268l-6.38,1.58a1.39,1.39,0,0,1-.91-2.58c1-.58,5.06-2.24,7-3.14a3.09,3.09,0,0,1,2.67-.07L489.4,266l10.13-2.87,4.81,10.12-8.22,2.64s-.52,1.68-1.68,1.74-7.93-.1-7.93-.1-5,5-6.51,3.1c-1.05-1.28,3.3-5.2,4.54-5.79.85-.4-2-.17-2-.17s-5.8,4.52-7,2.76,5.06-6.1,5.06-6.1-4.65,1.88-6.51,2.76-2.08-1.5-1.48-2S478.54,268,478.54,268Z" style="fill:#b78876"></path><path d="M488.63,266.79c0-.05-.37.2-1.09.33a7.22,7.22,0,0,1-3.06-.26,19.89,19.89,0,0,0-2.15-.43,4.59,4.59,0,0,0-2.56.39,2.93,2.93,0,0,0-1.11.94,2.19,2.19,0,0,0-.36,1.5,2.16,2.16,0,0,0,.74,1.44,1.84,1.84,0,0,0,1.64.28,6.52,6.52,0,0,1,1.41-.32,3,3,0,0,1,1.32.26,8.22,8.22,0,0,1,2.21,1.5,9.56,9.56,0,0,0,2.07,1.47,5,5,0,0,0,2.19.48,5.06,5.06,0,0,0,3-1,3.21,3.21,0,0,0,.64-.58c.13-.15.19-.24.18-.25s-.31.28-.93.67a5.23,5.23,0,0,1-2.92.78,4.92,4.92,0,0,1-2-.5,10,10,0,0,1-1.95-1.46,8.67,8.67,0,0,0-2.32-1.6,3.36,3.36,0,0,0-1.52-.3,6.1,6.1,0,0,0-1.51.33,1.29,1.29,0,0,1-1.21-.19,1.6,1.6,0,0,1-.57-1.09,2,2,0,0,1,1.19-2c1.52-.75,3.15-.26,4.43,0a6.78,6.78,0,0,0,3.17.1,3,3,0,0,0,.81-.33C488.56,266.87,488.64,266.8,488.63,266.79Z" style="fill:#aa6550"></path><path d="M482.55,276.15c.12.09.73-.59,1.72-1s1.89-.43,1.91-.58a2.32,2.32,0,0,0-2.11.12C482.93,275.16,482.43,276.09,482.55,276.15Z" style="fill:#aa6550"></path><path d="M478.76,273.13a6.16,6.16,0,0,1,4.4-1.78c0-.07-.25-.21-.73-.27a3.76,3.76,0,0,0-1.84.25,3.82,3.82,0,0,0-1.5,1.1C478.79,272.81,478.7,273.1,478.76,273.13Z" style="fill:#aa6550"></path><path d="M639.07,448.37l6.34,30.4-37.78,8.08c-.55-3.66,17.45-15.08,17.45-15.08l-4.86-19.31Z" style="fill:#F82828"></path><g style="opacity:0.6000000000000001"><path d="M636.41,467.63a1.59,1.59,0,0,1,1.44,1.53,1.51,1.51,0,0,1-1.5,1.45,1.66,1.66,0,0,1-1.52-1.63,1.56,1.56,0,0,1,1.73-1.33" style="fill:#fff"></path></g><g style="opacity:0.6000000000000001"><path d="M645.41,478.77l-.76-3-35.93,8.88s-1.53,1.1-1.09,2.24Z" style="fill:#fff"></path></g><path d="M624.42,471.71c.05.18,1,.07,2,.46s1.69,1.08,1.84,1-.35-1.12-1.61-1.58S624.35,471.55,624.42,471.71Z" style="fill:#263238"></path><path d="M620.81,474.19c0,.19.86.33,1.66,1s1.15,1.43,1.33,1.38.08-1.11-.93-1.9S620.78,474,620.81,474.19Z" style="fill:#263238"></path><path d="M619.58,479.42c.17,0,.23-1-.46-1.89s-1.64-1.12-1.68-.95.6.59,1.16,1.35S619.39,479.44,619.58,479.42Z" style="fill:#263238"></path><path d="M623.8,467.18c.12.15.91-.28,2-.43s1.94,0,2-.18-.86-.67-2.1-.47S623.68,467.06,623.8,467.18Z" style="fill:#263238"></path><path d="M623.74,462.51a3.74,3.74,0,0,0,1.89-.42,8.32,8.32,0,0,0,1.85-1,7.86,7.86,0,0,0,1-.81,2.27,2.27,0,0,0,.47-.56.81.81,0,0,0-.12-1,1,1,0,0,0-.9-.25,2.42,2.42,0,0,0-.69.25,6.83,6.83,0,0,0-1.09.65,7.12,7.12,0,0,0-1.5,1.52,3.22,3.22,0,0,0-.78,1.78c.09,0,.4-.63,1.15-1.49a7.21,7.21,0,0,1,1.48-1.31,7.56,7.56,0,0,1,1-.57c.38-.19.72-.27.86-.11s.06.09,0,.22a2.07,2.07,0,0,1-.35.41,10.44,10.44,0,0,1-.88.79,10.06,10.06,0,0,1-1.68,1.09A14.52,14.52,0,0,0,623.74,462.51Z" style="fill:#263238"></path><path d="M624,462.72a3,3,0,0,0,.11-1.93,6.42,6.42,0,0,0-.7-2,6.86,6.86,0,0,0-.73-1,1.61,1.61,0,0,0-1.41-.69.89.89,0,0,0-.68.69,2.39,2.39,0,0,0,0,.74,3.93,3.93,0,0,0,.27,1.27,4.53,4.53,0,0,0,1.22,1.79c.95.82,1.77.87,1.77.81s-.68-.33-1.44-1.15a4.33,4.33,0,0,1-1-1.65,3.9,3.9,0,0,1-.2-1.1c0-.41,0-.77.21-.76s.57.19.8.48a8.17,8.17,0,0,1,.69.92,7.47,7.47,0,0,1,.77,1.81C624,462,623.94,462.71,624,462.72Z" style="fill:#263238"></path><path d="M621,267.46s12.46,16.78,12.24,36.2-3.6,72.63-3.6,72.63L644,462.73l-24.78,4.52s-21.19-70-22.54-79.25-5-66.71-5-66.71l-9.51,58.22-7.45,80.81H549.39s.85-131.77,7.26-165.2h0Z" style="fill:#263238"></path><path d="M618,217.92c-1.08-4.62-3-9-3.53-13.76-.32-2.76-.18-5.58-.74-8.3s-2-5.47-4.57-6.6c-2.32-1-5.23-.61-7.23-2.18-2.2-1.74-2.32-5.15-4.29-7.15-1.61-1.63-4.1-2-6.06-3.17-2.81-1.71-4.24-5-5.4-8-2.87-7.59-5.26-15.45-9.59-22.31s-15.62-20-35.26-13.88l-9.82,8.17c-2.86,4.12-3.41,9.47-2.78,14.45s2.35,9.74,3.68,14.58,2.3,9.92,1.4,14.85c-.05.26-.11.52-.17.77a16.5,16.5,0,0,1-.9,2.23c-1.46,2.9-3.73,5.31-5.42,8.08s-2.78,6.24-1.55,9.25c.83,2.06,2.68,3.7,3,5.9.43,2.95-2,5.47-3,8.29a9,9,0,0,0,6.67,11.26c4.24.75,8.58-1.92,10.77-5.63s2.57-8.25,2.17-12.54c0-.4-.08-.8-.13-1.19a18.87,18.87,0,0,0,4.53-2.22c3.25-2.12,11.49-1.85,13.16-5.35.95-2,2.95-5.44,4.24-8.7L604.39,234c3.39,3.31,9.61,1.64,12.25-2.3S619.12,222.54,618,217.92Z" style="fill:#263238"></path><path d="M549.14,245.13l-20-13s5.25-25.74,10-28.35C542.79,201.8,549.14,245.13,549.14,245.13Z" style="fill:#F82828"></path><path d="M633.72,306.32c-1.52-30.36-12.07-37.4-21.82-55.19l-25.32-66.31-16,2.39-18.1,5.88-13.32,10.72a224,224,0,0,0,4.09,31.57s8.59,11.64,17.64,33.35L555,307.12Z" style="fill:#F82828"></path><path d="M554.78,254.86a6.2,6.2,0,0,1-.72-1.14c-.43-.75-1-1.85-1.75-3.23-1.44-2.74-3.32-6.57-5.28-10.87s-3.63-8.23-4.77-11.11c-.57-1.44-1-2.61-1.3-3.43a6.92,6.92,0,0,1-.4-1.28,7.41,7.41,0,0,1,.59,1.21l1.45,3.36c1.22,2.84,2.94,6.75,4.9,11s3.79,8.14,5.14,10.92l1.6,3.29A7.48,7.48,0,0,1,554.78,254.86Z" style="fill:#263238"></path><path d="M586.58,184.82s6.67-1.68,14.42,3.06,15.46,26.2,15.46,26.2l-21.88,12.2S584.33,188.69,586.58,184.82Z" style="fill:#F82828"></path><path d="M530.89,152.55a13.74,13.74,0,0,1,.36-12.57,18,18,0,0,1,7.12-6.63,19.34,19.34,0,0,1,12.74-2.46c4.33.81,8.37,3.82,9.73,8,.62,1.91.71,4,1.73,5.73a4.38,4.38,0,0,1,1,2.35,2.09,2.09,0,0,1-1.46,1.72,4.75,4.75,0,0,1-2.37,0,24.75,24.75,0,0,1-7.43-3.23" style="fill:#263238"></path><path d="M539,139.51l19.93.72a3.63,3.63,0,0,1,4,2.92l7,41.63a13.11,13.11,0,0,1-1.34,8.32l-1.42,2.68a9.63,9.63,0,0,1-16,1.58,4.55,4.55,0,0,1-.64-1,8,8,0,0,1-.34-.9,30.45,30.45,0,0,1-1.43-6.24c-.84-3.67-1.16-5.18-1.15-5.15s-8,.38-11.83-9.4c-1.88-4.86-3.4-13.18-4.42-20C530.35,148.49,532.77,140.17,539,139.51Z" style="fill:#b78876"></path><path d="M535.71,160.78a1.33,1.33,0,0,0,1.53,1.05,1.28,1.28,0,0,0,1.09-1.46,1.34,1.34,0,0,0-1.53-1.05A1.27,1.27,0,0,0,535.71,160.78Z" style="fill:#263238"></path><path d="M534,158.55c.2.14,1-.8,2.42-1.1s2.58.19,2.69,0-.17-.36-.69-.59a3.63,3.63,0,0,0-2.19-.19,3.5,3.5,0,0,0-1.89,1.09C534,158.16,533.89,158.5,534,158.55Z" style="fill:#263238"></path><path d="M549.59,158.35a1.32,1.32,0,0,0,1.53,1,1.27,1.27,0,0,0,1.09-1.45,1.34,1.34,0,0,0-1.54-1.05A1.27,1.27,0,0,0,549.59,158.35Z" style="fill:#263238"></path><path d="M547.77,155.86c.2.14,1-.8,2.43-1.1s2.57.19,2.68,0-.17-.36-.68-.59A3.66,3.66,0,0,0,550,154a3.47,3.47,0,0,0-1.88,1.09C547.76,155.47,547.68,155.81,547.77,155.86Z" style="fill:#263238"></path><path d="M544.93,167.32a9.15,9.15,0,0,0-2.36.08c-.36,0-.72,0-.83-.19a1.89,1.89,0,0,1,0-1.11c.15-.94.31-1.92.47-2.95.64-4.18,1-7.59.85-7.61s-.82,3.34-1.46,7.53c-.15,1-.29,2-.42,3a2.14,2.14,0,0,0,.11,1.44.94.94,0,0,0,.7.39,2.06,2.06,0,0,0,.63,0A9.53,9.53,0,0,0,544.93,167.32Z" style="fill:#263238"></path><path d="M547.52,184.06a26.31,26.31,0,0,0,12.78-6.53s-1.9,7.74-12.24,9Z" style="fill:#aa6550"></path><path d="M546.24,170.56a2.57,2.57,0,0,1,2.06-1.42,2.3,2.3,0,0,1,1.77.51,1.5,1.5,0,0,1,.47,1.64,1.74,1.74,0,0,1-1.73.86,5.49,5.49,0,0,1-2-.68,1.69,1.69,0,0,1-.49-.33.49.49,0,0,1-.11-.52" style="fill:#aa6550"></path><path d="M549.25,167.4c-.23,0,.09,1.55-1,2.91s-2.71,1.53-2.68,1.75.42.22,1.11.09a3.87,3.87,0,0,0,2.26-1.38,3.36,3.36,0,0,0,.72-2.41C549.6,167.71,549.35,167.37,549.25,167.4Z" style="fill:#263238"></path><path d="M546.63,151.69c.22.35,1.58-.13,3.26-.28s3.1,0,3.25-.39c.06-.18-.25-.49-.86-.74a5.52,5.52,0,0,0-2.54-.32,5.34,5.34,0,0,0-2.42.83C546.77,151.16,546.53,151.52,546.63,151.69Z" style="fill:#263238"></path><path d="M533.07,152.36c.32.26,1.21-.28,2.36-.54s2.19-.25,2.34-.63c.07-.18-.16-.46-.65-.67a3.5,3.5,0,0,0-3.78.93C533,151.87,532.93,152.22,533.07,152.36Z" style="fill:#263238"></path><path d="M563.63,160.73c-.16-.75.32-2.71,1-3,1.93-.74,5.55-1.35,6.66,3.7,1.53,6.89-5.7,7-5.76,6.81S564.18,163.34,563.63,160.73Z" style="fill:#b78876"></path><path d="M567.1,165.17s.14.06.36.1a1.18,1.18,0,0,0,.9-.18,3,3,0,0,0,.78-3,4,4,0,0,0-.71-1.64,1.42,1.42,0,0,0-1.11-.72.63.63,0,0,0-.64.48c0,.21,0,.34,0,.36s-.17-.08-.18-.38a.83.83,0,0,1,.18-.49.91.91,0,0,1,.62-.32,1.75,1.75,0,0,1,1.5.79,4.24,4.24,0,0,1,.84,1.83c.26,1.4-.16,2.85-1.09,3.36a1.29,1.29,0,0,1-1.14.06C567.15,165.33,567.08,165.19,567.1,165.17Z" style="fill:#aa6550"></path><path d="M537.75,138.52a9.67,9.67,0,0,0,7.84,6c1.84.19,3.95-.07,5.28,1.22s1.16,3.65,2.45,5c1.78,1.92,5.48,1.09,7,3.24.64.95.65,2.22,1.31,3.15a3.26,3.26,0,0,0,4.11.74,5.19,5.19,0,0,0,2.42-3.7,13.86,13.86,0,0,0-.12-4.54,25,25,0,0,0-2.42-8.6c-3-5.5-13.11-12-19.17-10.33" style="fill:#263238"></path><path d="M551.57,284a.35.35,0,0,0,0,.06v35.58c0,1.56-1.25,3.17-3.55,4.39a21.47,21.47,0,0,1-9.85,2.07h0c-8.39,0-13.4-3.33-13.4-6.46V284.1a.35.35,0,0,0,0-.06.56.56,0,0,1,0-.07c0-3.48,2.56-7.11,5.13-10.7,1.72-2.39,2.13-5.84,2.21-7.87,0-.24,0-.46,0-.65h-.23a1.88,1.88,0,0,1-2-1.73v-1.5a1.87,1.87,0,0,1,2-1.73h12.59a2,2,0,0,1,1.85,1,1.54,1.54,0,0,1,.15.68V263a1.88,1.88,0,0,1-2,1.73h-.23c0,.19,0,.41,0,.65.08,2,.49,5.48,2.21,7.87,2.57,3.59,5.11,7.22,5.13,10.7A.56.56,0,0,1,551.57,284Z" style="fill:#fafafa"></path><path d="M551.57,284a3.27,3.27,0,0,0,0-.36,9.16,9.16,0,0,0-.14-1.06,13.94,13.94,0,0,0-1.48-3.84,53.83,53.83,0,0,0-3.65-5.51c-1.52-2.18-2.17-5.22-2.24-8.52v-.22l.2,0a1.81,1.81,0,0,0,2-1.35c0-.45,0-1,0-1.51a1.45,1.45,0,0,0-.52-1.24,2,2,0,0,0-1.36-.44H539.3l-7.25,0a2,2,0,0,0-1.55.55,1.32,1.32,0,0,0-.37.71,9.13,9.13,0,0,0,0,.93c0,.31,0,.68,0,.94a1.33,1.33,0,0,0,.34.74,2,2,0,0,0,1.62.57l.27,0v.29a20.88,20.88,0,0,1-.47,4.34,12,12,0,0,1-1.7,4.19c-1.71,2.47-3.6,5-4.65,7.9a10.24,10.24,0,0,0-.49,2.26c0,.75,0,1.59,0,2.39v32.48a10.22,10.22,0,0,0,.09,2A3.87,3.87,0,0,0,526,322a9.56,9.56,0,0,0,3.27,2.23,22.13,22.13,0,0,0,7.64,1.57,26.4,26.4,0,0,0,7.43-.67,11.79,11.79,0,0,0,6-3.25,4.07,4.07,0,0,0,.79-1.4,5.56,5.56,0,0,0,.13-1.6c0-1.12,0-2.21,0-3.28,0-2.15,0-4.2,0-6.17,0-7.83.08-14.17.1-18.6,0-2.17,0-3.87,0-5.05s.05-1.77.05-1.77a12.09,12.09,0,0,1,.07,1.77c0,1.18,0,2.88.06,5.05,0,4.43,0,10.77.09,18.6,0,2,0,4,0,6.17,0,1.07,0,2.16,0,3.28a6.22,6.22,0,0,1-.14,1.74,4.65,4.65,0,0,1-.87,1.57,12.11,12.11,0,0,1-6.31,3.44,27.09,27.09,0,0,1-7.57.72,22.42,22.42,0,0,1-7.85-1.61,9.73,9.73,0,0,1-3.46-2.37,4.39,4.39,0,0,1-1.07-1.92,10.78,10.78,0,0,1-.11-2.17c0-5.65,0-11.5,0-17.5V290.74c0-1.65,0-3.29,0-4.91,0-.82,0-1.59,0-2.44A10.17,10.17,0,0,1,525,281c1.1-3.06,3-5.57,4.74-8a15.51,15.51,0,0,0,2.09-8.22l.27.26a2.47,2.47,0,0,1-2-.75,1.86,1.86,0,0,1-.48-1c0-.39,0-.68,0-1a7.19,7.19,0,0,1,0-1,1.92,1.92,0,0,1,.5-1,2.52,2.52,0,0,1,1.92-.7l7.25,0h5.07a2.45,2.45,0,0,1,1.64.55,1.87,1.87,0,0,1,.65,1.57c0,.53,0,1,0,1.57a2.2,2.2,0,0,1-2.42,1.68l.19-.19c.05,3.24.67,6.24,2.11,8.35a50,50,0,0,1,3.58,5.58,13.15,13.15,0,0,1,1.41,3.92,9.21,9.21,0,0,1,.09,1.08C551.61,283.92,551.59,284,551.57,284Z" style="fill:#263238"></path><path d="M543.51,264.66a54.41,54.41,0,0,1-11.22,0,52.6,52.6,0,0,1,11.22,0Z" style="fill:#263238"></path><path d="M550.45,288.8a4,4,0,0,0-3.84.16,14.29,14.29,0,0,1-3.69,1.6,7.11,7.11,0,0,1-4.5-1.15,27.48,27.48,0,0,0-4.18-2.29,8.12,8.12,0,0,0-8.38,2v30.56s1.67,5.21,13.44,4.39,10.85-6,10.85-6Z" style="fill:#F82828"></path><g style="opacity:0.5"><path d="M550.45,288.8a4,4,0,0,0-3.84.16,14.29,14.29,0,0,1-3.69,1.6,7.11,7.11,0,0,1-4.5-1.15,27.48,27.48,0,0,0-4.18-2.29,8.12,8.12,0,0,0-8.38,2v30.56s1.67,5.21,13.44,4.39,10.85-6,10.85-6Z" style="fill:#fff"></path></g><path d="M537.85,300.09a7.86,7.86,0,0,0-6.61-9,.79.79,0,0,0-.57.06.84.84,0,0,0-.21.76,9.69,9.69,0,0,0,2.33,5.41,9.58,9.58,0,0,0,5.05,3" style="fill:#263238"></path><path d="M526.85,314.64c2,4.09,4.83,6.86,8.35,7,.71,0,1.24-.44,1.92-.48a4.13,4.13,0,0,1,1.12.43,1.71,1.71,0,0,0,.59.13c3.65-.2,6.75-2.77,8.85-7.07,2.91-6,2-12.51-2-14.47a9.08,9.08,0,0,0-1.65-.65,6.61,6.61,0,0,0-2-.23,14.94,14.94,0,0,0-4.57,1l-.19.08c-3.27-1.45-5.88-1.46-8.41-.23C524.83,302.13,523.93,308.61,526.85,314.64Z" style="fill:#455a64"></path><path d="M526.92,308.53a3.05,3.05,0,0,1-.34-1.21,6.53,6.53,0,0,1,.36-3,6.43,6.43,0,0,1,1.68-2.52,2.92,2.92,0,0,1,1-.7s-.37.3-.89.84a7.07,7.07,0,0,0-2,5.38C526.83,308.06,527,308.52,526.92,308.53Z" style="fill:#fafafa"></path><path d="M527.66,311.4c-.08,0-.21-.27-.3-.64s-.09-.68,0-.7.21.27.3.64S527.74,311.38,527.66,311.4Z" style="fill:#fafafa"></path><path d="M546.16,290.23s-.75.34-1.88,1a15.86,15.86,0,0,0-1.88,1.35,15.12,15.12,0,0,0-3.57,4.38,14.57,14.57,0,0,0-.94,2.11c-.44,1.25-.57,2.07-.63,2.06a2.1,2.1,0,0,1,.06-.58,6,6,0,0,1,.13-.67c.07-.26.13-.56.24-.87a13.27,13.27,0,0,1,.91-2.18,14.9,14.9,0,0,1,1.58-2.42,15.76,15.76,0,0,1,2.05-2,12.79,12.79,0,0,1,1.95-1.31,6.1,6.1,0,0,1,.8-.41,4.94,4.94,0,0,1,.63-.27A2.1,2.1,0,0,1,546.16,290.23Z" style="fill:#263238"></path><path d="M522.32,289v31.57c0,1.38-1.1,2.81-3.15,3.89a19,19,0,0,1-8.72,1.83h-.05c-7.43,0-11.87-2.95-11.87-5.72V289a.43.43,0,0,0,0-.05s0,0,0-.06c0-3.08,2.27-6.3,4.55-9.48,1.52-2.12,1.89-5.18,2-7,0-.22,0-.41,0-.58h-.2a1.66,1.66,0,0,1-1.77-1.53V269a1.67,1.67,0,0,1,1.77-1.54H516a1.81,1.81,0,0,1,1.64.93,1.55,1.55,0,0,1,.13.61v1.33a1.66,1.66,0,0,1-1.77,1.53h-.21c0,.17,0,.36,0,.58.07,1.79.43,4.85,2,7,2.27,3.18,4.53,6.4,4.54,9.48Z" style="fill:#fafafa"></path><path d="M522.32,289s0-.11,0-.32a8.25,8.25,0,0,0-.12-.94,11.63,11.63,0,0,0-1.3-3.42,45,45,0,0,0-3.21-4.89,10.21,10.21,0,0,1-1.46-3.39,18.68,18.68,0,0,1-.5-4.13v-.1h.09a2.05,2.05,0,0,0,1.19-.27,1.41,1.41,0,0,0,.68-1c0-.42,0-.9,0-1.35a1.34,1.34,0,0,0-.48-1.16,1.83,1.83,0,0,0-1.26-.42H505a1.9,1.9,0,0,0-1.45.52,1.31,1.31,0,0,0-.35.68,7.66,7.66,0,0,0,0,.84c0,.28,0,.6,0,.86a1.19,1.19,0,0,0,.34.7,1.86,1.86,0,0,0,1.5.55h.13v.14a19.26,19.26,0,0,1-.42,3.82,10.34,10.34,0,0,1-1.49,3.67c-.76,1.1-1.56,2.19-2.28,3.35a17.38,17.38,0,0,0-1.85,3.68,8.17,8.17,0,0,0-.44,2c0,.68,0,1.41,0,2.13v28.77a9,9,0,0,0,.09,1.82,3.54,3.54,0,0,0,.85,1.55,8.35,8.35,0,0,0,2.94,2,16.3,16.3,0,0,0,3.37,1,22.38,22.38,0,0,0,3.43.39,23.62,23.62,0,0,0,6.61-.6,14.78,14.78,0,0,0,3-1.09,7.53,7.53,0,0,0,2.43-1.83,3.68,3.68,0,0,0,.71-1.28,5,5,0,0,0,.12-1.45v-2.9c0-1.9,0-3.72,0-5.46,0-7,0-12.58,0-16.48s.05-6,.05-6a1.71,1.71,0,0,1,0,.4c0,.27,0,.66,0,1.16,0,1,0,2.54,0,4.48,0,3.9,0,9.53,0,16.48,0,1.74,0,3.56,0,5.46,0,.95,0,1.92,0,2.9v.75a3.35,3.35,0,0,1-.13.77,3.94,3.94,0,0,1-.75,1.36,7.94,7.94,0,0,1-2.5,1.9,15,15,0,0,1-3,1.11,23.52,23.52,0,0,1-6.69.62,21.69,21.69,0,0,1-3.47-.39,16.25,16.25,0,0,1-3.43-1,8.53,8.53,0,0,1-3-2.07,3.83,3.83,0,0,1-.92-1.66,9.33,9.33,0,0,1-.1-1.89V290.54c0-.73,0-1.42,0-2.16a8.67,8.67,0,0,1,.46-2.09,17.94,17.94,0,0,1,1.88-3.74c.73-1.16,1.53-2.26,2.29-3.35a10.26,10.26,0,0,0,1.46-3.58,19.34,19.34,0,0,0,.42-3.76l.12.12a2.09,2.09,0,0,1-1.69-.63,1.57,1.57,0,0,1-.4-.84c0-.32,0-.59,0-.89a6.64,6.64,0,0,1,0-.88,1.61,1.61,0,0,1,.41-.81,2.14,2.14,0,0,1,1.63-.59h10.92a2,2,0,0,1,1.39.47,1.54,1.54,0,0,1,.55,1.32c0,.47,0,.9,0,1.38a1.57,1.57,0,0,1-.77,1.12,2.22,2.22,0,0,1-1.29.3l.09-.09a13.75,13.75,0,0,0,1.9,7.43,44.29,44.29,0,0,1,3.18,4.93,11.66,11.66,0,0,1,1.26,3.46,4.81,4.81,0,0,1,.09.95A.87.87,0,0,1,522.32,289Z" style="fill:#263238"></path><path d="M515.17,271.78a88.29,88.29,0,0,1-9.94,0,88.29,88.29,0,0,1,9.94,0Z" style="fill:#263238"></path><path d="M521.32,293.16a3.56,3.56,0,0,0-3.4.15,12.92,12.92,0,0,1-3.27,1.42,6.27,6.27,0,0,1-4-1,24.62,24.62,0,0,0-3.7-2,7.19,7.19,0,0,0-7.43,1.75V320.5s1.49,4.62,11.92,3.9,9.6-5.35,9.6-5.35Z" style="fill:#455a64"></path><path d="M543.45,282.68H487.39L484,285.56l11.24,40.37h57.21l11.25-38.45ZM502.79,321.5H499.9l-7.74-30.82h10.63Zm10.27.47h-4.85V290.68h4.85Zm10,0h-4.85V290.68H523Zm10,0h-4.85V290.68H533Zm10,0h-4.85V290.68H543Zm7-.47h-2.88V290.68h10.62Z" style="fill:#F82828"></path><rect x="491.05" y="302.85" width="65.6" height="4.75" style="fill:#F82828"></rect><rect x="480.24" y="278.76" width="87.22" height="9.61" rx="1.88" style="fill:#F82828"></rect><path d="M566.38,288.38c0,.14-19,.26-42.53.26s-42.54-.12-42.54-.26,19-.26,42.54-.26S566.38,288.23,566.38,288.38Z" style="fill:#263238"></path><path d="M523.08,284.78h0a2.46,2.46,0,0,1-2.47-2.47V241.23a2.46,2.46,0,0,1,2.47-2.46h0a2.47,2.47,0,0,1,2.47,2.46v41.08A2.47,2.47,0,0,1,523.08,284.78Z" style="fill:#455a64"></path><path d="M614.12,215.39l8.06,31.33a13.77,13.77,0,0,1-9,16.17l-43.76,18.86-8.54-13,40.7-25.79-5.35-17.58Z" style="fill:#b78876"></path><path d="M544.4,276.92s-4.61,3.19-5.85,3.93-2.66-1.8-1.39-3.15c.89-.94,4.1-3.76,5.93-5.36a3.83,3.83,0,0,1,3-.9l8.87,1.15,15.36-9.84,8.12,15.12-11,4.71s-2.64,2.71-3.86,3.14-5.88-.49-5.88-.49-5.06,6.47-7.27,5,1.56-6.09,1.56-6.09-5.14,6.3-7,4.8,2.13-7.18,2.13-7.18-2.8,2.79-4.51,4.32-3.85-1.13-3.36-1.84Z" style="fill:#b78876"></path><path d="M551.19,285.13c.13.07,1.13-1.65,2.67-3.55a2.74,2.74,0,0,1,1.2-1,2.91,2.91,0,0,1,1.3-.07c.77.12,1.26.27,1.28.19a2.62,2.62,0,0,0-1.21-.54,2.82,2.82,0,0,0-1.51,0,3,3,0,0,0-1.46,1.13A11.3,11.3,0,0,0,551.19,285.13Z" style="fill:#aa6550"></path><path d="M554.31,277.76c.06,0-.34-.52-1.27-.59a3.08,3.08,0,0,0-1.53.32,6.19,6.19,0,0,0-1.53,1.08,20.54,20.54,0,0,0-3.09,3.52,22.49,22.49,0,0,0,3.43-3.14,4.36,4.36,0,0,1,2.71-1.42A4.72,4.72,0,0,1,554.31,277.76Z" style="fill:#aa6550"></path><path d="M544,277.63c.07,0,.39-.39.91-1a5.07,5.07,0,0,1,2.48-1.85,7.73,7.73,0,0,1,3.16.24,2.77,2.77,0,0,0,1.39.07,6.65,6.65,0,0,0-1.31-.42,6.42,6.42,0,0,0-3.36-.38,4.77,4.77,0,0,0-2.64,2.12A3.41,3.41,0,0,0,544,277.63Z" style="fill:#aa6550"></path><path d="M581.81,185.54S576.72,195.35,583,212s18.59,30.95,18.59,30.95l-3.25-11.07s-12.8-18.29-13.13-33.58c-.33-14.7,1.38-13.47,1.38-13.47Z" style="fill:#455a64"></path><path d="M595.24,225.61a8.87,8.87,0,0,1-.9-1.25,16.45,16.45,0,0,1-.94-1.55c-.35-.61-.76-1.3-1.13-2.11a65,65,0,0,1-4.73-13,52.06,52.06,0,0,1-1.78-13.74c0-.89.12-1.69.19-2.39s.24-1.3.35-1.78a8.22,8.22,0,0,1,.56-1.45,9.57,9.57,0,0,1-.36,1.49c-.08.52-.16,1.11-.26,1.77s-.1,1.49-.11,2.37a56.76,56.76,0,0,0,1.92,13.6,71.8,71.8,0,0,0,4.55,13c.35.81.73,1.51,1,2.13s.6,1.16.86,1.58A8.26,8.26,0,0,1,595.24,225.61Z" style="fill:#263238"></path><path d="M617,213.55a3.77,3.77,0,0,1-.77.6c-.51.36-1.27.85-2.22,1.45-1.88,1.19-4.54,2.77-7.52,4.41s-5.75,3-7.77,4c-1,.47-1.84.85-2.41,1.09a4,4,0,0,1-.92.33,26.6,26.6,0,0,1,3.16-1.75c2-1,4.7-2.47,7.69-4.1s5.65-3.16,7.59-4.27A28.19,28.19,0,0,1,617,213.55Z" style="fill:#263238"></path></g></svg>