<svg id="motocicletas" xmlns="http://www.w3.org/2000/svg" width="129.737" height="78.202" viewBox="0 0 129.737 78.202">
  <g id="Grupo_6664" data-name="Grupo 6664">
    <path id="Caminho_10005" data-name="Caminho 10005" d="M24.583,117.129a1.927,1.927,0,0,1,1.437,1.082l1.669,3.547A1.927,1.927,0,1,1,24.2,123.4l-1.236-2.627L1.622,117.336a1.927,1.927,0,0,1-1.62-1.9v-6.165a1.927,1.927,0,0,1,1.927-1.927H27.36a1.928,1.928,0,0,1,.525.073l21.788,6.174,24.81-2.448A14.969,14.969,0,0,1,87.777,116.8l2.059,2.613c.507-.169,1.017-.322,1.527-.452.55-.14,1.11-.258,1.677-.36l-4.827-14.37a1.927,1.927,0,0,1,2.143-2.514c11.564,1.928,21.921,8.74,29.952,19.7a68.924,68.924,0,0,1,9.295,17.5l.02.059,0,.012a1.808,1.808,0,0,1,.05,1.091,1.939,1.939,0,0,1-2.387,1.382L115,138.079a22.678,22.678,0,0,0-12.594.129l.919,2.148a20.276,20.276,0,1,1-3.541,1.518l-.961-2.245a23.145,23.145,0,0,0-3.47,2.129,22.121,22.121,0,0,0-9.023,17.3c-.006.194-.008.39-.008.585A23.186,23.186,0,0,0,89.073,170.6a2.008,2.008,0,0,1,.178,1.551,1.928,1.928,0,0,1-1.84,1.352H82.205a1.927,1.927,0,1,1,0-3.853h2.181a27.111,27.111,0,0,1-1.918-10.007c0-.237,0-.475.01-.7a25.945,25.945,0,0,1,10.579-20.286,26.5,26.5,0,0,1,22.966-4.3l8.321,2.292a29.345,29.345,0,0,0-12.055-10.886c-6.637-3.418-14.106-4.567-19.977-3.074-6.679,1.7-13.576,7.808-15.729,9.837A20.257,20.257,0,0,1,56.5,155.364c-.6,0-1.2-.026-1.8-.079a64.5,64.5,0,0,0-6.294,14.368h24.8a1.927,1.927,0,0,1,0,3.853H45.976a2,2,0,0,1-1.019-.26,1.93,1.93,0,0,1-.922-2.036,50.028,50.028,0,0,1,2.543-8.077l-6.32-.374a20.249,20.249,0,1,1-3.219-14.433l7.124-3.872-12.524-6.23a1.924,1.924,0,0,1-.885-.9l-3.245-6.9A1.927,1.927,0,1,1,31,128.783l2.96,6.29,29.718,14.782a16.4,16.4,0,0,0,8.959-17.668,1.927,1.927,0,0,1,.522-1.7,56.978,56.978,0,0,1,5.413-4.71l-9.66-2.737-4.961,3.781a10.266,10.266,0,0,1-11.671.506L26.8,111.2H3.855v2.6Zm75.569,42.515a9.33,9.33,0,1,0,7.51-9.148l3.59,8.391a1.927,1.927,0,1,1-3.543,1.515l-3.587-8.386A9.321,9.321,0,0,0,100.152,159.644Zm-7.068,0a16.407,16.407,0,1,0,11.764-15.725l1.274,2.979a13.207,13.207,0,1,1-3.541,1.52l-1.274-2.978A16.4,16.4,0,0,0,93.085,159.644Zm20.969-37.3a38.7,38.7,0,0,1,3.743,2.2c-5.271-7.45-13.332-15.378-24.858-18.347l4.032,12A35.61,35.61,0,0,1,114.054,122.345Zm-93.8,20.905a16.394,16.394,0,1,0,16.136,19.279l-3.232-.191a13.183,13.183,0,1,1-2.368-10.614l2.847-1.548A16.389,16.389,0,0,0,20.252,143.25Zm-.921,14.7,8.019-4.359a9.328,9.328,0,1,0,1.9,8.514l-9.111-.539a1.926,1.926,0,0,1-.806-3.616Zm29.046-11.4L27.091,158.119l21.111,1.25a71.764,71.764,0,0,1,3.85-7.154,1.926,1.926,0,0,1,1.938-.9,16.55,16.55,0,0,0,4.188.106Zm34.264-23.62a40.117,40.117,0,0,1,3.5-1.976l-1.393-1.768a11.133,11.133,0,0,0-9.888-4.21l-15.05,1.485Zm-28.3,1.146a6.4,6.4,0,0,0,7.273-.315l2.663-2.029L39.6,114.739Z" transform="translate(-0.002 -101.691)" fill="#caa360"/>
  </g>
  <g id="Grupo_6666" data-name="Grupo 6666" transform="translate(66.631 53.369)">
    <path id="Caminho_10006" data-name="Caminho 10006" d="M199.273,321.173h3.795l2.4-5.009h-5.8a1.927,1.927,0,1,1,0-3.853h8.862a1.927,1.927,0,0,1,1.738,2.758l-4.238,8.862a1.926,1.926,0,0,1-1.738,1.1h-5.009a1.927,1.927,0,0,1,0-3.853Z" transform="translate(-197.346 -312.311)" fill="#caa360"/>
  </g>
</svg>
