<svg id="pickup" xmlns="http://www.w3.org/2000/svg" width="198.895" height="69.521" viewBox="0 0 198.895 69.521">
  <path id="Caminho_9908" data-name="Caminho 9908" d="M19.72,60.318a114.555,114.555,0,0,1-14.191-.771c-2.954-.321-4.366-.835-5.009-2.825a10.467,10.467,0,0,1,.193-7.063A1.8,1.8,0,0,1,2,49.017h.9a68.708,68.708,0,0,1,.835-22.346c1.092-2.954,4.495-2.954,6.678-2.89H65.825c.321-3.724,1.284-12.008,1.926-14.127C68.779,6.122,73.209,5.8,78.8,5.48c5.137-.385,40.711.385,42,.514a29.538,29.538,0,0,1,11.687,2.825c5.265,2.569,19.649,12.2,22.218,13.87,1.413,0,6.036.321,15.09,1.284L191.3,27.056c.064,0,4.623,2.183,4.623,3.981v16.31a6.55,6.55,0,0,1,2.825,6.871V55.5c0,2.183-2.44,3.467-2.954,3.66a1.541,1.541,0,0,1-.642.193H180.188a1.605,1.605,0,1,1,0-3.211H194.7a2.569,2.569,0,0,0,.835-.771V54.218c.128-2.7,0-3.6-1.8-4.238a1.605,1.605,0,0,1-1.027-1.541v-16.7a22.6,22.6,0,0,0-2.569-1.67,283.175,283.175,0,0,0-36.023-4.238,1.605,1.605,0,0,1-.835-.257L131,11.709A25.878,25.878,0,0,0,120.727,9.14C118.8,9.012,84,8.306,78.86,8.627c-3.853.257-7.706.514-8.091,1.926a125.65,125.65,0,0,0-1.926,14.962,1.605,1.605,0,0,1-1.605,1.541H10.281c-1.284,0-3.211-.064-3.6.771A67.424,67.424,0,0,0,6.3,50.365a1.605,1.605,0,0,1-.385,1.284,1.605,1.605,0,0,1-1.22.642H3.217a10.146,10.146,0,0,0,.321,3.532c.128.193.514.385,2.312.642a141.658,141.658,0,0,0,19.071.642l5.33-.064a1.605,1.605,0,1,1,0,3.211H25.114l-5.33.128ZM83.162,35.725h-6.55a.835.835,0,0,1,0-1.605h6.55a.835.835,0,0,1,0,1.605Zm37.051,0h-6.421a.835.835,0,0,1,0-1.605h6.421a.835.835,0,0,1,0,1.605Z" transform="translate(0.001 -5.373)" fill="#caa360"/>
  <path id="Caminho_9909" data-name="Caminho 9909" d="M21.561,45.041A17.081,17.081,0,1,1,38.641,27.961,17.081,17.081,0,0,1,21.561,45.041Zm0-30.951a13.87,13.87,0,1,0,13.87,13.87A13.87,13.87,0,0,0,21.561,14.091Z" transform="translate(24.295 24.48)" fill="#caa360"/>
  <path id="Caminho_9910" data-name="Caminho 9910" d="M40.006,45.041a17.113,17.113,0,1,1,.064,0Zm0-30.951a13.9,13.9,0,1,0,.064,0Z" transform="translate(124.643 24.48)" fill="#caa360"/>
  <path id="Caminho_9911" data-name="Caminho 9911" d="M151.809,20.57h-.193a.771.771,0,0,1-.642-.963,9.632,9.632,0,0,1,3.018-5.137.8.8,0,1,1,1.092,1.156,8.027,8.027,0,0,0-2.5,4.3.771.771,0,0,1-.771.642Zm8.6,10.724a9.632,9.632,0,0,1-9.375-7.641.771.771,0,0,1,.642-.9.835.835,0,0,1,.9.642,8.027,8.027,0,1,0,5.522-9.439.771.771,0,0,1-1.027-.514.835.835,0,0,1,.514-.963,9.825,9.825,0,0,1,2.89-.449,9.632,9.632,0,0,1,0,19.264ZM144.938,24.68H64.287a1.605,1.605,0,0,1,0-3.211h80.651a1.605,1.605,0,1,1,0,3.211ZM26.144,16.332H10.733c-.321,0-6.421-.257-9.247-.642a.835.835,0,0,1-.706-.835.771.771,0,0,1,.9-.706l8.99.642H26.08a.835.835,0,0,1,0,1.605Z" transform="translate(4.237 30.714)" fill="#caa360"/>
  <g id="Grupo_6643" data-name="Grupo 6643" transform="translate(3.96 0.877)">
    <path id="Caminho_9913" data-name="Caminho 9913" d="M79.523,26.384H78.111L65.14,26.256a13.613,13.613,0,0,1-5.779-1.67,11.045,11.045,0,0,0-4.366-1.413c-.321,0-38.142-.514-39.041-.642-2.89-.449-4.495-2.055-4.366-4.495l.385-7.192c.321-4.495,4.688-4.495,7.063-4.495l36.6.514a34.867,34.867,0,0,1,14.448,4.944l3.6,1.8a12.971,12.971,0,0,1,7.962,7.063,6.229,6.229,0,0,1-.193,4.88,2.312,2.312,0,0,1-1.926.9ZM16.338,19.321c1.926.128,36.473.642,38.656.642a13.613,13.613,0,0,1,5.715,1.67,10.723,10.723,0,0,0,4.431,1.348l12.971.193h.642a7.065,7.065,0,0,0-.257-1.605c-.771-2.569-3.532-3.853-6.229-5.137l-3.66-1.926A31.785,31.785,0,0,0,55.379,9.946L19.42,9.3c-3.66,0-4.11.385-4.174,1.605L14.8,17.973c0,.385,0,1.027,1.605,1.284Z" transform="translate(58.821 -0.956)" fill="#caa360"/>
    <path id="Caminho_9914" data-name="Caminho 9914" d="M22.2,48.6a.771.771,0,0,1-.771-.771A293.386,293.386,0,0,0,16.1,6.345a.835.835,0,0,1,1.605-.321,296.344,296.344,0,0,1,5.33,41.738A.835.835,0,0,1,22.2,48.6ZM49.041,29.2h4.752a1.863,1.863,0,1,0-.064-3.724H49.041Z" transform="translate(83.331 -5.51)" fill="#caa360"/>
    <path id="Caminho_9915" data-name="Caminho 9915" d="M137.739,17.375h-4.752a1.605,1.605,0,0,1-1.605-1.605V11.917a1.605,1.605,0,0,1,1.605-1.605h4.752a3.5,3.5,0,1,1,0,7Zm-3.211-3.211h3.211v-.642h-3.211Zm12.2,25.043H62.161a.771.771,0,0,1-.835-.706A15.8,15.8,0,0,0,51.052,25.98a.835.835,0,1,1,.642-1.541A17.466,17.466,0,0,1,62.867,37.6h83.862a.835.835,0,0,1,0,1.605ZM6.1,28.934H1.287a.835.835,0,0,1,0-1.605h4.88c.193,0,.449,0,.449-.385V22.32a2.312,2.312,0,0,1,.642-1.67l2.247-1.926V16.412l-6.421.128a9.632,9.632,0,0,1-1.862-.257.771.771,0,0,1-.578-.963.835.835,0,0,1,.963-.642,7.963,7.963,0,0,0,1.477.257h6.55a1.605,1.605,0,0,1,1.541,1.413v1.926a2.055,2.055,0,0,1-.835,1.734q-.987.84-1.926,1.734a.706.706,0,0,0-.193.514v4.623a1.926,1.926,0,0,1-2.055,1.991Zm42.83,21.447a.835.835,0,0,1-.578-1.284,8.027,8.027,0,1,0-13.806-6.935.835.835,0,0,1-.963.642.771.771,0,0,1-.642-.9,9.632,9.632,0,1,1,16.567,8.219A.771.771,0,0,1,48.933,50.381Zm-6.421,2.89a9.7,9.7,0,0,1-9.439-7.577.835.835,0,0,1,.642-.963.771.771,0,0,1,.963.642,8.091,8.091,0,0,0,7.834,6.293,7.9,7.9,0,0,0,3.4-.706.835.835,0,0,1,.642,1.413,9.5,9.5,0,0,1-4.045.9ZM63.959,20.008A1.605,1.605,0,0,1,62.353,18.4V11.275a1.605,1.605,0,0,1,3.211,0v7.063a1.605,1.605,0,0,1-1.605,1.605Zm86.816-8.348-7.192-.449a1.605,1.605,0,0,1-1.541-1.67A1.541,1.541,0,0,1,143.775,8l7.063.449Z" transform="translate(-0.615 7.925)" fill="#caa360"/>
    <path id="Caminho_9916" data-name="Caminho 9916" d="M.848,9.16a9.247,9.247,0,0,0,1.67.193h6.55s.642.128.642.642v1.926a1.284,1.284,0,0,1-.449,1.092L.72,20.333ZM190.4,29.451h-7.063a1.605,1.605,0,0,1,0-3.211H190.4a1.605,1.605,0,1,1,0,3.211ZM47.66,18.535a1.027,1.027,0,0,1-.257,0,15.861,15.861,0,0,0-3.211-.449.835.835,0,0,1,0-1.605,17.723,17.723,0,0,1,3.6.514.835.835,0,0,1,.642.963.771.771,0,0,1-.835.642ZM190.4,23.479h-3.853a2.569,2.569,0,0,1-2.44-2.569V17.187a1.8,1.8,0,0,0-.514-1.156l-2.569-2.247a.835.835,0,0,1-.257-.642V11.6a1.734,1.734,0,0,1,1.926-1.541H190.4a.835.835,0,0,1,0,1.605H182.7a.642.642,0,0,0-.321.128V12.82l2.376,2.055a3.4,3.4,0,0,1,1.027,2.312v3.789s0,1.092.771,1.092H190.4a.835.835,0,0,1,0,1.605Z" transform="translate(-0.049 14.278)" fill="#caa360"/>
    <path id="Caminho_9917" data-name="Caminho 9917" d="M32.935,15.679c0-.9-1.284-1.541-1.477-1.734L28.89,11.7V10.092c0-.514.642-.642,1.027-.642h7.706Z" transform="translate(152.669 15.85)" fill="#caa360"/>
  </g>
</svg>
