<svg id="suvs" xmlns="http://www.w3.org/2000/svg" width="179.813" height="76.558" viewBox="0 0 179.813 76.558">
  <path id="Caminho_9975" data-name="Caminho 9975" d="M19.045,66.269c-1.444,0-14.445-2.383-15.889-9.245A8.811,8.811,0,0,1,5.323,49.8V31.312a1.95,1.95,0,0,1,0-.867c0-.433,5.489-10.256,8.522-15.167a5.2,5.2,0,0,1-1.589-3.756c0-3.611,4.695-3.9,7.222-4.045h.867c2.311,0,70.636-1.878,75.4-1.878s18.2,1.444,38.423,18.778c4.045.722,31.49,6.5,37.051,8.306A17.984,17.984,0,0,1,181.551,42.94a26.145,26.145,0,0,1-2.961,22.534,1.878,1.878,0,0,1-1.589.939H161.544a1.806,1.806,0,1,1,0-3.611h14.445A22.9,22.9,0,0,0,178.3,44.24a14.012,14.012,0,0,0-8.161-8.089c-5.633-1.878-36.834-8.306-37.051-8.378a1.228,1.228,0,0,1-.867-.361c-19.5-16.828-32.79-18.056-36.112-18.056-4.695,0-72.8,1.733-75.113,1.878H19.7a10.472,10.472,0,0,0-3.9.65,2.167,2.167,0,0,0,1.3,1.372,1.806,1.806,0,0,1,1.011,1.156,1.878,1.878,0,0,1,0,1.517c-2.6,3.611-8.234,13.723-9.389,15.889V50.451a1.661,1.661,0,0,1-.578,1.3A5.85,5.85,0,0,0,6.478,56.3C7.2,59.7,14.712,62.08,19.262,62.8a1.806,1.806,0,0,1,0,3.611Z" transform="translate(-3.056 -5.6)" fill="#caa360"/>
  <path id="Caminho_9976" data-name="Caminho 9976" d="M5.142,14.686a43.336,43.336,0,0,1,7.222-2.167L10.2,9.63H4.42Zm160.049,6.139c-2.311-.433-13-4.117-13-6.067s1.878-2.167,3.611-2.167h2.167Z" transform="translate(5.43 19.476)" fill="#caa360"/>
  <path id="Caminho_9977" data-name="Caminho 9977" d="M22.653,46.566A17.623,17.623,0,1,1,40.276,28.943,17.623,17.623,0,0,1,22.653,46.566Zm0-31.634A14.012,14.012,0,1,0,36.664,28.943,14.012,14.012,0,0,0,22.653,14.931Z" transform="translate(9.226 29.992)" fill="#caa360"/>
  <path id="Caminho_9979" data-name="Caminho 9979" d="M15.936,32.18a9.967,9.967,0,0,1-6.211-2.167.894.894,0,1,1,1.228-1.3,8.237,8.237,0,1,0-2.383-3.177,1.011,1.011,0,0,1-.506,1.155.794.794,0,0,1-1.156-.506,8.45,8.45,0,0,1-.794-3.828,9.967,9.967,0,1,1,9.967,9.967Z" transform="translate(15.943 36.65)" fill="#caa360"/>
  <path id="Caminho_9980" data-name="Caminho 9980" d="M37.921,46.565A17.623,17.623,0,1,1,50.428,41.43a17.623,17.623,0,0,1-12.508,5.136Zm0-31.634a14.012,14.012,0,1,0,9.954,4.078,14.012,14.012,0,0,0-9.954-4.078Z" transform="translate(104.678 29.993)" fill="#caa360"/>
  <path id="Caminho_9981" data-name="Caminho 9981" d="M127.223,48.97H56.443a1.806,1.806,0,0,1,0-3.611h70.78a1.806,1.806,0,0,1,0,3.611ZM4.442,26.725a.794.794,0,0,1-.722-.433.867.867,0,0,1,0-1.228A41.385,41.385,0,0,1,17.009,20.08l-.939-1.444H4.442a.867.867,0,0,1-.867-.939.867.867,0,0,1,.867-1.228H16.5a1.156,1.156,0,0,1,.794.361l2.022,2.889a.939.939,0,0,1,0,.867,1.011,1.011,0,0,1-.65.578A40.012,40.012,0,0,0,4.875,26.508Zm171.028,3.033a21.666,21.666,0,0,1-4.478,0s-13.867-3.611-13.867-7.222c0-1.444.722-3.033,4.55-3.033h11.773a.9.9,0,0,1,0,1.806H161.675c-2.745,0-2.745.867-2.745,1.228a36.69,36.69,0,0,0,12.35,5.2,39.072,39.072,0,0,0,7.222,0,.943.943,0,0,1,.939.867.867.867,0,0,1-.867.939ZM70.527,18.2H63.3a.9.9,0,0,1,0-1.806h7.222a.9.9,0,0,1,0,1.806ZM94,18.2H86.778a.9.9,0,0,1,0-1.806H94A.9.9,0,1,1,94,18.2Zm28.89,23.545H46.91a.9.9,0,0,1,0-1.806h74.825A17.045,17.045,0,0,1,130.112,28.1a.867.867,0,0,1,1.228,0,1.011,1.011,0,0,1-.361,1.3,15.239,15.239,0,0,0-7.222,11.339.867.867,0,0,1-.867,1.011Zm-105.087,0A16.9,16.9,0,0,1,3.792,33.37a.939.939,0,0,1,.433-1.228.939.939,0,0,1,1.156.506A15.889,15.889,0,0,0,18.092,39.87a.867.867,0,0,1,.722,1.011.939.939,0,0,1-1.011.867ZM121.084,10.186l4.333,3.25m0,1.806a1.661,1.661,0,0,1-1.083-.361L120,11.63a1.806,1.806,0,1,1,2.167-2.889l4.333,3.25a1.806,1.806,0,0,1,.361,2.528,1.661,1.661,0,0,1-1.444.722Z" transform="translate(-0.514 11.698)" fill="#caa360"/>
  <path id="Caminho_9983" data-name="Caminho 9983" d="M31.387,32.3a9.967,9.967,0,0,1,0-19.934,9.462,9.462,0,0,1,4.045.867.939.939,0,0,1,.506,1.156,1.011,1.011,0,0,1-1.228.506,7.223,7.223,0,0,0-3.322-.722,8.161,8.161,0,1,0,8.161,8.161.9.9,0,1,1,1.806,0A9.967,9.967,0,0,1,31.387,32.3Z" transform="translate(111.212 36.526)" fill="#caa360"/>
  <path id="Caminho_9984" data-name="Caminho 9984" d="M23.84,13.06a7.8,7.8,0,0,1,.867,1.733" transform="translate(126.27 40.819)" fill="#caa360"/>
  <path id="Caminho_9985" data-name="Caminho 9985" d="M25.546,16.532a.867.867,0,0,1-.794-.578,7.222,7.222,0,0,0-.867-1.661.892.892,0,0,1,1.517-.939,8.306,8.306,0,0,1,1.011,1.95.867.867,0,0,1-.506,1.156Z" transform="translate(125.719 40.02)" fill="#caa360"/>
  <g id="Grupo_6658" data-name="Grupo 6658" transform="translate(4.289 1.268)">
    <path id="Caminho_9988" data-name="Caminho 9988" d="M119.931,23.067H5.456a1.806,1.806,0,0,1,0-3.611H114.515A42.251,42.251,0,0,0,91.4,9.995l-63.558.217A1.806,1.806,0,0,1,26.04,8.478,1.878,1.878,0,0,1,27.845,6.6H91.619c3.033,0,14.012,1.011,29.612,13.434a1.95,1.95,0,0,1,.578,2.022,1.878,1.878,0,0,1-1.95,1.011ZM12.678,10.356a1.806,1.806,0,0,1,0-3.611H19.9A1.806,1.806,0,0,1,21.706,8.55a1.733,1.733,0,0,1-1.733,1.806H12.678Z" transform="translate(-3.65 -0.645)" fill="#caa360"/>
    <path id="Caminho_9989" data-name="Caminho 9989" d="M8.735,27.259a.939.939,0,0,1-.722-1.083l2.6-11.556a1.011,1.011,0,0,1,1.156-.722,1.011,1.011,0,0,1,.65.722L9.674,26.609a1.011,1.011,0,0,1-.939.65ZM51.781,54.343a.867.867,0,0,1-.867-.867A330.064,330.064,0,0,0,44.92,6.819a.867.867,0,0,1,.722-1.011.794.794,0,0,1,1.011.65A330.937,330.937,0,0,1,52.72,53.476a.867.867,0,0,1-.939.867ZM79.443,28.486h5.345a2.095,2.095,0,1,0,0-4.189H79.443Z" transform="translate(23.405 -5.776)" fill="#caa360"/>
    <path id="Caminho_9990" data-name="Caminho 9990" d="M24.79,15.89H19.446a1.806,1.806,0,0,1-1.806-1.806V9.9A1.806,1.806,0,0,1,19.446,8.09H24.79a3.9,3.9,0,1,1,0,7.8Zm-3.611-3.611H24.79v-.506H21.179Z" transform="translate(83.402 8.626)" fill="#caa360"/>
  </g>
</svg>
