<svg xmlns="http://www.w3.org/2000/svg" xmlns:xlink="http://www.w3.org/1999/xlink" width="180.461" height="100.102" viewBox="0 0 180.461 100.102">
  <defs>
    <clipPath id="clip-path">
      <rect id="Ret창ngulo_5141" data-name="Ret창ngulo 5141" width="180.461" height="100.102" transform="translate(0 0)" fill="#caa360"/>
    </clipPath>
  </defs>
  <g id="utilitarios" transform="translate(0 0)">
    <g id="Grupo_8911" data-name="Grupo 8911" clip-path="url(#clip-path)">
      <path id="Caminho_11176" data-name="Caminho 11176" d="M36.9,8.171h-18.6a5.457,5.457,0,0,0-5.451,5.451V38.637a5.457,5.457,0,0,0,5.451,5.451H36.9a5.457,5.457,0,0,0,5.451-5.451V13.622A5.457,5.457,0,0,0,36.9,8.171m2.456,30.466A2.458,2.458,0,0,1,36.9,41.093h-18.6a2.458,2.458,0,0,1-2.455-2.456V13.622a2.458,2.458,0,0,1,2.455-2.456H36.9a2.458,2.458,0,0,1,2.456,2.456Z" fill="#caa360"/>
      <path id="Caminho_11177" data-name="Caminho 11177" d="M70.692,8.171H52.1a5.457,5.457,0,0,0-5.451,5.451V38.637A5.457,5.457,0,0,0,52.1,44.088h18.6a5.457,5.457,0,0,0,5.451-5.451V13.622a5.457,5.457,0,0,0-5.451-5.451m2.456,30.466a2.458,2.458,0,0,1-2.456,2.456H52.1a2.459,2.459,0,0,1-2.456-2.456V13.622A2.459,2.459,0,0,1,52.1,11.166h18.6a2.458,2.458,0,0,1,2.456,2.456Z" fill="#caa360"/>
      <path id="Caminho_11178" data-name="Caminho 11178" d="M16.853,80.743c-4.071-.644-10.5-2.62-12.327-5.464A32.694,32.694,0,0,1,1.2,76.308c2.714,5.833,14.09,7.9,15.435,7.9l.217.142a1.806,1.806,0,0,0,0-3.611" fill="#caa360"/>
      <path id="Caminho_11179" data-name="Caminho 11179" d="M179.142,59.691A18.456,18.456,0,0,0,168.81,48.913c-5.561-1.9-33.006-7.969-37.051-8.727C111.536,21.972,98.1,20.454,93.336,20.454c-.579,0-2.985-.034-5.213-.072.1.838.169,1.682.205,2.534.02.471.024.939.02,1.406,2.309.042,4.766.08,5.352.08,3.322,0,16.612,1.29,36.112,18.973a1.2,1.2,0,0,0,.867.379c.217.076,31.418,6.83,37.051,8.8a14.378,14.378,0,0,1,8.161,8.5,25.129,25.129,0,0,1-2.311,19.5H159.05a1.9,1.9,0,0,0,.085,3.8h15.457a1.865,1.865,0,0,0,1.589-.987,28.667,28.667,0,0,0,2.961-23.678" fill="#caa360"/>
      <path id="Caminho_11180" data-name="Caminho 11180" d="M171.268,63.844c-2.311-.433-13-4.117-13-6.067s1.878-2.167,3.611-2.167h2.167Z" fill="#caa360"/>
      <path id="Caminho_11181" data-name="Caminho 11181" d="M32.526,100.1A17.623,17.623,0,1,1,50.149,82.478,17.623,17.623,0,0,1,32.526,100.1Zm0-31.634A14.012,14.012,0,1,0,46.537,82.48v0A14.013,14.013,0,0,0,32.526,68.466Z" fill="#caa360"/>
      <path id="Caminho_11182" data-name="Caminho 11182" d="M32.526,92.373a9.971,9.971,0,0,1-6.211-2.167.894.894,0,0,1,1.228-1.3,8.237,8.237,0,1,0-2.383-3.177,1.01,1.01,0,0,1-.506,1.155.794.794,0,0,1-1.079-.31.824.824,0,0,1-.077-.2A8.454,8.454,0,0,1,22.7,82.55a9.967,9.967,0,1,1,9.967,9.967Z" fill="#caa360"/>
      <path id="Caminho_11183" data-name="Caminho 11183" d="M143.246,100.1a17.623,17.623,0,1,1,12.507-5.135,17.623,17.623,0,0,1-12.507,5.135Zm0-31.634a14.012,14.012,0,1,0,9.954,4.078,14.012,14.012,0,0,0-9.954-4.078" fill="#caa360"/>
      <path id="Caminho_11184" data-name="Caminho 11184" d="M127.356,84.211H56.576a1.806,1.806,0,0,1,0-3.611h70.78a1.806,1.806,0,0,1,0,3.611" fill="#caa360"/>
      <path id="Caminho_11185" data-name="Caminho 11185" d="M175.6,65a21.62,21.62,0,0,1-4.478,0s-13.867-3.611-13.867-7.222c0-1.444.722-3.033,4.55-3.033h11.773a.9.9,0,0,1,0,1.806H161.808c-2.745,0-2.745.867-2.745,1.228a36.7,36.7,0,0,0,12.35,5.2,39.065,39.065,0,0,0,7.222,0,.943.943,0,0,1,.939.867.867.867,0,0,1-.792.936l-.075,0Z" fill="#caa360"/>
      <path id="Caminho_11186" data-name="Caminho 11186" d="M123.023,76.986H47.043a.9.9,0,0,1,0-1.806h74.825a17.042,17.042,0,0,1,8.377-11.839.867.867,0,0,1,1.226,0l0,0a1.011,1.011,0,0,1-.361,1.3A15.237,15.237,0,0,0,123.89,75.98a.867.867,0,0,1-.711,1,.814.814,0,0,1-.156.012Z" fill="#caa360"/>
      <line id="Linha_237" data-name="Linha 237" x2="4.333" y2="3.25" transform="translate(121.217 45.427)" fill="#ddac1f"/>
      <path id="Caminho_11187" data-name="Caminho 11187" d="M127.383,49.326a1.661,1.661,0,0,1-1.083-.361l-4.334-3.251a1.806,1.806,0,1,1,2.114-2.928c.018.012.036.026.053.039l4.333,3.25a1.806,1.806,0,0,1,.361,2.528,1.661,1.661,0,0,1-1.444.722Z" fill="#caa360"/>
      <path id="Caminho_11188" data-name="Caminho 11188" d="M143.246,92.369a9.967,9.967,0,0,1,0-19.934,9.458,9.458,0,0,1,4.045.867.939.939,0,0,1,.506,1.156,1.01,1.01,0,0,1-1.228.506,7.218,7.218,0,0,0-3.322-.722,8.161,8.161,0,1,0,8.161,8.161.9.9,0,1,1,1.806,0,9.967,9.967,0,0,1-9.968,9.966" fill="#caa360"/>
      <path id="Caminho_11189" data-name="Caminho 11189" d="M150.757,77.422a7.8,7.8,0,0,1,.867,1.733" fill="#caa360"/>
      <path id="Caminho_11190" data-name="Caminho 11190" d="M151.912,80.1a.868.868,0,0,1-.794-.578,7.239,7.239,0,0,0-.867-1.661.892.892,0,1,1,1.517-.939,8.284,8.284,0,0,1,1.011,1.95A.866.866,0,0,1,152.321,80l-.048.019Z" fill="#caa360"/>
      <path id="Caminho_11191" data-name="Caminho 11191" d="M8.425,64.853H3.576a.841.841,0,0,1,0-1.617H8.49c.194,0,.453,0,.453-.388V58.193a2.329,2.329,0,0,1,.647-1.681l2.262-1.939V52.244l-6.468.129a9.718,9.718,0,0,1-1.875-.259.776.776,0,0,1-.594-.923l.012-.047A.841.841,0,0,1,3.9,50.5a7.968,7.968,0,0,0,1.487.259h6.6a1.616,1.616,0,0,1,1.552,1.423v1.94a2.072,2.072,0,0,1-.841,1.746q-.995.846-1.94,1.746a.709.709,0,0,0-.194.517v4.656a1.939,1.939,0,0,1-1.875,2c-.064,0-.129,0-.194,0Z" fill="#caa360"/>
      <path id="Caminho_11192" data-name="Caminho 11192" d="M3.7,51.339a9.313,9.313,0,0,0,1.681.194h6.6s.647.129.647.647v1.94a1.292,1.292,0,0,1-.453,1.1l-8.6,7.37Z" fill="#caa360"/>
      <path id="Caminho_11193" data-name="Caminho 11193" d="M9.562,3.532H79.436a5.739,5.739,0,0,1,5.865,5.6V69.658a8.151,8.151,0,0,1,2.318-.322A8.645,8.645,0,0,1,89,69.451V7.37A7.548,7.548,0,0,0,81.284,0H7.714A7.548,7.548,0,0,0,0,7.37V72.918a7.547,7.547,0,0,0,7.714,7.37h8.212a7.666,7.666,0,0,1,.579-3.532H9.562a5.74,5.74,0,0,1-5.866-5.6V9.136a5.74,5.74,0,0,1,5.866-5.6" fill="#caa360"/>
      <rect id="Ret창ngulo_5140" data-name="Ret창ngulo 5140" width="3.697" height="9.934" transform="translate(85.302 66.56)" fill="#caa360"/>
      <path id="Caminho_11194" data-name="Caminho 11194" d="M124.89,43.686c-15.6-13.7-26.579-14.81-29.612-14.81H88.426q-.131,1.884-.247,3.768l6.88-.025a40.236,40.236,0,0,1,23.115,10.43H87.883c-.036,1.329-.093,2.656-.178,3.981h35.813a1.84,1.84,0,0,0,1.95-1.115,2.294,2.294,0,0,0-.578-2.229" fill="#caa360"/>
      <path id="Caminho_11195" data-name="Caminho 11195" d="M115.593,41.527h-5.348a1.807,1.807,0,0,0-1.8,1.81v4.184a1.807,1.807,0,0,0,1.806,1.806h5.345a3.9,3.9,0,0,0,0-7.8" fill="#caa360"/>
      <path id="Caminho_11196" data-name="Caminho 11196" d="M92.1,16.415a39.6,39.6,0,0,1,15.915,10.692c1.986.5,3.972.986,5.953,1.5-9.913-12.16-18.17-15.118-20.742-15.765l-6.644-1.673c-.14.426-.275.853-.413,1.279a9.056,9.056,0,0,1,.695,2.673Z" fill="#caa360"/>
    </g>
  </g>
</svg>
